<svg version="1.1" viewBox="0.0 0.0 960.0 720.0" fill="none" stroke="none" stroke-linecap="square" stroke-miterlimit="10" xmlns:xlink="http://www.w3.org/1999/xlink" xmlns="http://www.w3.org/2000/svg"><clipPath id="p.0"><path d="m0 0l960.0 0l0 720.0l-960.0 0l0 -720.0z" clip-rule="nonzero"/></clipPath><g clip-path="url(#p.0)"><path fill="#000000" fill-opacity="0.0" d="m0 0l960.0 0l0 720.0l-960.0 0z" fill-rule="evenodd"/><path fill="#ffffff" d="m155.8702 44.9817l55.748306 0l0 55.748295l-55.748306 0z" fill-rule="evenodd"/><path stroke="#000000" stroke-width="3.0" stroke-linejoin="round" stroke-linecap="butt" d="m155.8702 44.9817l55.748306 0l0 55.748295l-55.748306 0z" fill-rule="evenodd"/><path fill="#ffffff" d="m221.70485 44.9817l55.748306 0l0 55.748295l-55.748306 0z" fill-rule="evenodd"/><path stroke="#000000" stroke-width="3.0" stroke-linejoin="round" stroke-linecap="butt" d="m221.70485 44.9817l55.748306 0l0 55.748295l-55.748306 0z" fill-rule="evenodd"/><path fill="#ffffff" d="m287.53952 44.9817l55.74829 0l0 55.748295l-55.74829 0z" fill-rule="evenodd"/><path stroke="#000000" stroke-width="3.0" stroke-linejoin="round" stroke-linecap="butt" d="m287.53952 44.9817l55.74829 0l0 55.748295l-55.74829 0z" fill-rule="evenodd"/><path fill="#ffffff" d="m353.37418 44.9817l55.74829 0l0 55.748295l-55.74829 0z" fill-rule="evenodd"/><path stroke="#000000" stroke-width="3.0" stroke-linejoin="round" stroke-linecap="butt" d="m353.37418 44.9817l55.74829 0l0 55.748295l-55.74829 0z" fill-rule="evenodd"/><path fill="#ffffff" d="m419.20883 44.9817l55.74832 0l0 55.748295l-55.74832 0z" fill-rule="evenodd"/><path stroke="#000000" stroke-width="3.0" stroke-linejoin="round" stroke-linecap="butt" d="m419.20883 44.9817l55.74832 0l0 55.748295l-55.74832 0z" fill-rule="evenodd"/><path fill="#ffffff" d="m485.0437 44.9817l55.74829 0l0 55.748295l-55.74829 0z" fill-rule="evenodd"/><path stroke="#000000" stroke-width="3.0" stroke-linejoin="round" stroke-linecap="butt" d="m485.0437 44.9817l55.74829 0l0 55.748295l-55.74829 0z" fill-rule="evenodd"/><path fill="#ffffff" d="m550.87836 44.9817l55.74829 0l0 55.748295l-55.74829 0z" fill-rule="evenodd"/><path stroke="#000000" stroke-width="3.0" stroke-linejoin="round" stroke-linecap="butt" d="m550.87836 44.9817l55.74829 0l0 55.748295l-55.74829 0z" fill-rule="evenodd"/><path fill="#ffffff" d="m616.713 44.9817l55.74829 0l0 55.748295l-55.74829 0z" fill-rule="evenodd"/><path stroke="#000000" stroke-width="3.0" stroke-linejoin="round" stroke-linecap="butt" d="m616.713 44.9817l55.74829 0l0 55.748295l-55.74829 0z" fill-rule="evenodd"/><path fill="#ffffff" d="m682.54767 44.9817l55.74829 0l0 55.748295l-55.74829 0z" fill-rule="evenodd"/><path stroke="#000000" stroke-width="3.0" stroke-linejoin="round" stroke-linecap="butt" d="m682.54767 44.9817l55.74829 0l0 55.748295l-55.74829 0z" fill-rule="evenodd"/><path fill="#ffffff" d="m748.3823 44.9817l55.74829 0l0 55.748295l-55.74829 0z" fill-rule="evenodd"/><path stroke="#000000" stroke-width="3.0" stroke-linejoin="round" stroke-linecap="butt" d="m748.3823 44.9817l55.74829 0l0 55.748295l-55.74829 0z" fill-rule="evenodd"/><path fill="#ffffff" d="m155.8702 108.86586l55.748306 0l0 55.74829l-55.748306 0z" fill-rule="evenodd"/><path stroke="#000000" stroke-width="3.0" stroke-linejoin="round" stroke-linecap="butt" d="m155.8702 108.86586l55.748306 0l0 55.74829l-55.748306 0z" fill-rule="evenodd"/><path fill="#ffffff" d="m221.70485 108.86586l55.748306 0l0 55.74829l-55.748306 0z" fill-rule="evenodd"/><path stroke="#000000" stroke-width="3.0" stroke-linejoin="round" stroke-linecap="butt" d="m221.70485 108.86586l55.748306 0l0 55.74829l-55.748306 0z" fill-rule="evenodd"/><path fill="#ffffff" d="m287.53952 108.86586l55.74829 0l0 55.74829l-55.74829 0z" fill-rule="evenodd"/><path stroke="#000000" stroke-width="3.0" stroke-linejoin="round" stroke-linecap="butt" d="m287.53952 108.86586l55.74829 0l0 55.74829l-55.74829 0z" fill-rule="evenodd"/><path fill="#ffffff" d="m353.37418 108.86586l55.74829 0l0 55.74829l-55.74829 0z" fill-rule="evenodd"/><path stroke="#000000" stroke-width="3.0" stroke-linejoin="round" stroke-linecap="butt" d="m353.37418 108.86586l55.74829 0l0 55.74829l-55.74829 0z" fill-rule="evenodd"/><path fill="#ffffff" d="m419.20883 108.86586l55.74832 0l0 55.74829l-55.74832 0z" fill-rule="evenodd"/><path stroke="#000000" stroke-width="3.0" stroke-linejoin="round" stroke-linecap="butt" d="m419.20883 108.86586l55.74832 0l0 55.74829l-55.74832 0z" fill-rule="evenodd"/><path fill="#ffffff" d="m485.0437 108.86586l55.74829 0l0 55.74829l-55.74829 0z" fill-rule="evenodd"/><path stroke="#000000" stroke-width="3.0" stroke-linejoin="round" stroke-linecap="butt" d="m485.0437 108.86586l55.74829 0l0 55.74829l-55.74829 0z" fill-rule="evenodd"/><path fill="#ffffff" d="m550.87836 108.86586l55.74829 0l0 55.74829l-55.74829 0z" fill-rule="evenodd"/><path stroke="#000000" stroke-width="3.0" stroke-linejoin="round" stroke-linecap="butt" d="m550.87836 108.86586l55.74829 0l0 55.74829l-55.74829 0z" fill-rule="evenodd"/><path fill="#ffffff" d="m616.713 108.86586l55.74829 0l0 55.74829l-55.74829 0z" fill-rule="evenodd"/><path stroke="#000000" stroke-width="3.0" stroke-linejoin="round" stroke-linecap="butt" d="m616.713 108.86586l55.74829 0l0 55.74829l-55.74829 0z" fill-rule="evenodd"/><path fill="#ffffff" d="m682.54767 108.86586l55.74829 0l0 55.74829l-55.74829 0z" fill-rule="evenodd"/><path stroke="#000000" stroke-width="3.0" stroke-linejoin="round" stroke-linecap="butt" d="m682.54767 108.86586l55.74829 0l0 55.74829l-55.74829 0z" fill-rule="evenodd"/><path fill="#ffffff" d="m748.3823 108.86586l55.74829 0l0 55.74829l-55.74829 0z" fill-rule="evenodd"/><path stroke="#000000" stroke-width="3.0" stroke-linejoin="round" stroke-linecap="butt" d="m748.3823 108.86586l55.74829 0l0 55.74829l-55.74829 0z" fill-rule="evenodd"/><path fill="#ffffff" d="m155.8702 172.75002l55.748306 0l0 55.748306l-55.748306 0z" fill-rule="evenodd"/><path stroke="#000000" stroke-width="3.0" stroke-linejoin="round" stroke-linecap="butt" d="m155.8702 172.75002l55.748306 0l0 55.748306l-55.748306 0z" fill-rule="evenodd"/><path fill="#ffffff" d="m221.70485 172.75002l55.748306 0l0 55.748306l-55.748306 0z" fill-rule="evenodd"/><path stroke="#000000" stroke-width="3.0" stroke-linejoin="round" stroke-linecap="butt" d="m221.70485 172.75002l55.748306 0l0 55.748306l-55.748306 0z" fill-rule="evenodd"/><path fill="#ffffff" d="m287.53952 172.75002l55.74829 0l0 55.748306l-55.74829 0z" fill-rule="evenodd"/><path stroke="#000000" stroke-width="3.0" stroke-linejoin="round" stroke-linecap="butt" d="m287.53952 172.75002l55.74829 0l0 55.748306l-55.74829 0z" fill-rule="evenodd"/><path fill="#ffffff" d="m353.37418 172.75002l55.74829 0l0 55.748306l-55.74829 0z" fill-rule="evenodd"/><path stroke="#000000" stroke-width="3.0" stroke-linejoin="round" stroke-linecap="butt" d="m353.37418 172.75002l55.74829 0l0 55.748306l-55.74829 0z" fill-rule="evenodd"/><path fill="#ffffff" d="m419.20883 172.75002l55.74832 0l0 55.748306l-55.74832 0z" fill-rule="evenodd"/><path stroke="#000000" stroke-width="3.0" stroke-linejoin="round" stroke-linecap="butt" d="m419.20883 172.75002l55.74832 0l0 55.748306l-55.74832 0z" fill-rule="evenodd"/><path fill="#ffffff" d="m485.0437 172.75002l55.74829 0l0 55.748306l-55.74829 0z" fill-rule="evenodd"/><path stroke="#000000" stroke-width="3.0" stroke-linejoin="round" stroke-linecap="butt" d="m485.0437 172.75002l55.74829 0l0 55.748306l-55.74829 0z" fill-rule="evenodd"/><path fill="#ffffff" d="m550.87836 172.75002l55.74829 0l0 55.748306l-55.74829 0z" fill-rule="evenodd"/><path stroke="#000000" stroke-width="3.0" stroke-linejoin="round" stroke-linecap="butt" d="m550.87836 172.75002l55.74829 0l0 55.748306l-55.74829 0z" fill-rule="evenodd"/><path fill="#ffffff" d="m616.713 172.75002l55.74829 0l0 55.748306l-55.74829 0z" fill-rule="evenodd"/><path stroke="#000000" stroke-width="3.0" stroke-linejoin="round" stroke-linecap="butt" d="m616.713 172.75002l55.74829 0l0 55.748306l-55.74829 0z" fill-rule="evenodd"/><path fill="#ffffff" d="m682.54767 172.75002l55.74829 0l0 55.748306l-55.74829 0z" fill-rule="evenodd"/><path stroke="#000000" stroke-width="3.0" stroke-linejoin="round" stroke-linecap="butt" d="m682.54767 172.75002l55.74829 0l0 55.748306l-55.74829 0z" fill-rule="evenodd"/><path fill="#ffffff" d="m748.3823 172.75002l55.74829 0l0 55.748306l-55.74829 0z" fill-rule="evenodd"/><path stroke="#000000" stroke-width="3.0" stroke-linejoin="round" stroke-linecap="butt" d="m748.3823 172.75002l55.74829 0l0 55.748306l-55.74829 0z" fill-rule="evenodd"/><path fill="#ffffff" d="m155.8702 236.63419l55.748306 0l0 55.74829l-55.748306 0z" fill-rule="evenodd"/><path stroke="#000000" stroke-width="3.0" stroke-linejoin="round" stroke-linecap="butt" d="m155.8702 236.63419l55.748306 0l0 55.74829l-55.748306 0z" fill-rule="evenodd"/><path fill="#ffffff" d="m221.70485 236.63419l55.748306 0l0 55.74829l-55.748306 0z" fill-rule="evenodd"/><path stroke="#000000" stroke-width="3.0" stroke-linejoin="round" stroke-linecap="butt" d="m221.70485 236.63419l55.748306 0l0 55.74829l-55.748306 0z" fill-rule="evenodd"/><path fill="#ffffff" d="m287.53952 236.63419l55.74829 0l0 55.74829l-55.74829 0z" fill-rule="evenodd"/><path stroke="#000000" stroke-width="3.0" stroke-linejoin="round" stroke-linecap="butt" d="m287.53952 236.63419l55.74829 0l0 55.74829l-55.74829 0z" fill-rule="evenodd"/><path fill="#ffffff" d="m353.37418 236.63419l55.74829 0l0 55.74829l-55.74829 0z" fill-rule="evenodd"/><path stroke="#000000" stroke-width="3.0" stroke-linejoin="round" stroke-linecap="butt" d="m353.37418 236.63419l55.74829 0l0 55.74829l-55.74829 0z" fill-rule="evenodd"/><path fill="#ffffff" d="m419.20883 236.63419l55.74832 0l0 55.74829l-55.74832 0z" fill-rule="evenodd"/><path stroke="#000000" stroke-width="3.0" stroke-linejoin="round" stroke-linecap="butt" d="m419.20883 236.63419l55.74832 0l0 55.74829l-55.74832 0z" fill-rule="evenodd"/><path fill="#ffffff" d="m485.0437 236.63419l55.74829 0l0 55.74829l-55.74829 0z" fill-rule="evenodd"/><path stroke="#000000" stroke-width="3.0" stroke-linejoin="round" stroke-linecap="butt" d="m485.0437 236.63419l55.74829 0l0 55.74829l-55.74829 0z" fill-rule="evenodd"/><path fill="#ffffff" d="m550.87836 236.63419l55.74829 0l0 55.74829l-55.74829 0z" fill-rule="evenodd"/><path stroke="#000000" stroke-width="3.0" stroke-linejoin="round" stroke-linecap="butt" d="m550.87836 236.63419l55.74829 0l0 55.74829l-55.74829 0z" fill-rule="evenodd"/><path fill="#ffffff" d="m616.713 236.63419l55.74829 0l0 55.74829l-55.74829 0z" fill-rule="evenodd"/><path stroke="#000000" stroke-width="3.0" stroke-linejoin="round" stroke-linecap="butt" d="m616.713 236.63419l55.74829 0l0 55.74829l-55.74829 0z" fill-rule="evenodd"/><path fill="#ffffff" d="m682.54767 236.63419l55.74829 0l0 55.74829l-55.74829 0z" fill-rule="evenodd"/><path stroke="#000000" stroke-width="3.0" stroke-linejoin="round" stroke-linecap="butt" d="m682.54767 236.63419l55.74829 0l0 55.74829l-55.74829 0z" fill-rule="evenodd"/><path fill="#ffffff" d="m748.3823 236.63419l55.74829 0l0 55.74829l-55.74829 0z" fill-rule="evenodd"/><path stroke="#000000" stroke-width="3.0" stroke-linejoin="round" stroke-linecap="butt" d="m748.3823 236.63419l55.74829 0l0 55.74829l-55.74829 0z" fill-rule="evenodd"/><path fill="#ffffff" d="m155.8702 300.51834l55.748306 0l0 55.74829l-55.748306 0z" fill-rule="evenodd"/><path stroke="#000000" stroke-width="3.0" stroke-linejoin="round" stroke-linecap="butt" d="m155.8702 300.51834l55.748306 0l0 55.74829l-55.748306 0z" fill-rule="evenodd"/><path fill="#ffffff" d="m221.70485 300.51834l55.748306 0l0 55.74829l-55.748306 0z" fill-rule="evenodd"/><path stroke="#000000" stroke-width="3.0" stroke-linejoin="round" stroke-linecap="butt" d="m221.70485 300.51834l55.748306 0l0 55.74829l-55.748306 0z" fill-rule="evenodd"/><path fill="#ffffff" d="m287.53952 300.51834l55.74829 0l0 55.74829l-55.74829 0z" fill-rule="evenodd"/><path stroke="#000000" stroke-width="3.0" stroke-linejoin="round" stroke-linecap="butt" d="m287.53952 300.51834l55.74829 0l0 55.74829l-55.74829 0z" fill-rule="evenodd"/><path fill="#ffffff" d="m353.37418 300.51834l55.74829 0l0 55.74829l-55.74829 0z" fill-rule="evenodd"/><path stroke="#000000" stroke-width="3.0" stroke-linejoin="round" stroke-linecap="butt" d="m353.37418 300.51834l55.74829 0l0 55.74829l-55.74829 0z" fill-rule="evenodd"/><path fill="#ffffff" d="m419.20883 300.51834l55.74832 0l0 55.74829l-55.74832 0z" fill-rule="evenodd"/><path stroke="#000000" stroke-width="3.0" stroke-linejoin="round" stroke-linecap="butt" d="m419.20883 300.51834l55.74832 0l0 55.74829l-55.74832 0z" fill-rule="evenodd"/><path fill="#ffffff" d="m485.0437 300.51834l55.74829 0l0 55.74829l-55.74829 0z" fill-rule="evenodd"/><path stroke="#000000" stroke-width="3.0" stroke-linejoin="round" stroke-linecap="butt" d="m485.0437 300.51834l55.74829 0l0 55.74829l-55.74829 0z" fill-rule="evenodd"/><path fill="#ffffff" d="m550.87836 300.51834l55.74829 0l0 55.74829l-55.74829 0z" fill-rule="evenodd"/><path stroke="#000000" stroke-width="3.0" stroke-linejoin="round" stroke-linecap="butt" d="m550.87836 300.51834l55.74829 0l0 55.74829l-55.74829 0z" fill-rule="evenodd"/><path fill="#ffffff" d="m616.713 300.51834l55.74829 0l0 55.74829l-55.74829 0z" fill-rule="evenodd"/><path stroke="#000000" stroke-width="3.0" stroke-linejoin="round" stroke-linecap="butt" d="m616.713 300.51834l55.74829 0l0 55.74829l-55.74829 0z" fill-rule="evenodd"/><path fill="#ffffff" d="m682.54767 300.51834l55.74829 0l0 55.74829l-55.74829 0z" fill-rule="evenodd"/><path stroke="#000000" stroke-width="3.0" stroke-linejoin="round" stroke-linecap="butt" d="m682.54767 300.51834l55.74829 0l0 55.74829l-55.74829 0z" fill-rule="evenodd"/><path fill="#ffffff" d="m748.3823 300.51834l55.74829 0l0 55.74829l-55.74829 0z" fill-rule="evenodd"/><path stroke="#000000" stroke-width="3.0" stroke-linejoin="round" stroke-linecap="butt" d="m748.3823 300.51834l55.74829 0l0 55.74829l-55.74829 0z" fill-rule="evenodd"/><path fill="#ffffff" d="m155.8702 363.73465l55.748306 0l0 55.74829l-55.748306 0z" fill-rule="evenodd"/><path stroke="#000000" stroke-width="3.0" stroke-linejoin="round" stroke-linecap="butt" d="m155.8702 363.73465l55.748306 0l0 55.74829l-55.748306 0z" fill-rule="evenodd"/><path fill="#ffffff" d="m221.70485 363.73465l55.748306 0l0 55.74829l-55.748306 0z" fill-rule="evenodd"/><path stroke="#000000" stroke-width="3.0" stroke-linejoin="round" stroke-linecap="butt" d="m221.70485 363.73465l55.748306 0l0 55.74829l-55.748306 0z" fill-rule="evenodd"/><path fill="#ffffff" d="m287.53952 363.73465l55.74829 0l0 55.74829l-55.74829 0z" fill-rule="evenodd"/><path stroke="#000000" stroke-width="3.0" stroke-linejoin="round" stroke-linecap="butt" d="m287.53952 363.73465l55.74829 0l0 55.74829l-55.74829 0z" fill-rule="evenodd"/><path fill="#ffffff" d="m353.37418 363.73465l55.74829 0l0 55.74829l-55.74829 0z" fill-rule="evenodd"/><path stroke="#000000" stroke-width="3.0" stroke-linejoin="round" stroke-linecap="butt" d="m353.37418 363.73465l55.74829 0l0 55.74829l-55.74829 0z" fill-rule="evenodd"/><path fill="#ffffff" d="m419.20883 363.73465l55.74832 0l0 55.74829l-55.74832 0z" fill-rule="evenodd"/><path stroke="#000000" stroke-width="3.0" stroke-linejoin="round" stroke-linecap="butt" d="m419.20883 363.73465l55.74832 0l0 55.74829l-55.74832 0z" fill-rule="evenodd"/><path fill="#ffffff" d="m485.0437 363.73465l55.74829 0l0 55.74829l-55.74829 0z" fill-rule="evenodd"/><path stroke="#000000" stroke-width="3.0" stroke-linejoin="round" stroke-linecap="butt" d="m485.0437 363.73465l55.74829 0l0 55.74829l-55.74829 0z" fill-rule="evenodd"/><path fill="#ffffff" d="m550.87836 363.73465l55.74829 0l0 55.74829l-55.74829 0z" fill-rule="evenodd"/><path stroke="#000000" stroke-width="3.0" stroke-linejoin="round" stroke-linecap="butt" d="m550.87836 363.73465l55.74829 0l0 55.74829l-55.74829 0z" fill-rule="evenodd"/><path fill="#ffffff" d="m616.713 363.73465l55.74829 0l0 55.74829l-55.74829 0z" fill-rule="evenodd"/><path stroke="#000000" stroke-width="3.0" stroke-linejoin="round" stroke-linecap="butt" d="m616.713 363.73465l55.74829 0l0 55.74829l-55.74829 0z" fill-rule="evenodd"/><path fill="#ffffff" d="m682.54767 363.73465l55.74829 0l0 55.74829l-55.74829 0z" fill-rule="evenodd"/><path stroke="#000000" stroke-width="3.0" stroke-linejoin="round" stroke-linecap="butt" d="m682.54767 363.73465l55.74829 0l0 55.74829l-55.74829 0z" fill-rule="evenodd"/><path fill="#ffffff" d="m748.3823 363.73465l55.74829 0l0 55.74829l-55.74829 0z" fill-rule="evenodd"/><path stroke="#000000" stroke-width="3.0" stroke-linejoin="round" stroke-linecap="butt" d="m748.3823 363.73465l55.74829 0l0 55.74829l-55.74829 0z" fill-rule="evenodd"/><path fill="#ffffff" d="m155.8702 427.6188l55.748306 0l0 55.74829l-55.748306 0z" fill-rule="evenodd"/><path stroke="#000000" stroke-width="3.0" stroke-linejoin="round" stroke-linecap="butt" d="m155.8702 427.6188l55.748306 0l0 55.74829l-55.748306 0z" fill-rule="evenodd"/><path fill="#ffffff" d="m221.70485 427.6188l55.748306 0l0 55.74829l-55.748306 0z" fill-rule="evenodd"/><path stroke="#000000" stroke-width="3.0" stroke-linejoin="round" stroke-linecap="butt" d="m221.70485 427.6188l55.748306 0l0 55.74829l-55.748306 0z" fill-rule="evenodd"/><path fill="#ffffff" d="m287.53952 427.6188l55.74829 0l0 55.74829l-55.74829 0z" fill-rule="evenodd"/><path stroke="#000000" stroke-width="3.0" stroke-linejoin="round" stroke-linecap="butt" d="m287.53952 427.6188l55.74829 0l0 55.74829l-55.74829 0z" fill-rule="evenodd"/><path fill="#ffffff" d="m353.37418 427.6188l55.74829 0l0 55.74829l-55.74829 0z" fill-rule="evenodd"/><path stroke="#000000" stroke-width="3.0" stroke-linejoin="round" stroke-linecap="butt" d="m353.37418 427.6188l55.74829 0l0 55.74829l-55.74829 0z" fill-rule="evenodd"/><path fill="#ffffff" d="m419.20883 427.6188l55.74832 0l0 55.74829l-55.74832 0z" fill-rule="evenodd"/><path stroke="#000000" stroke-width="3.0" stroke-linejoin="round" stroke-linecap="butt" d="m419.20883 427.6188l55.74832 0l0 55.74829l-55.74832 0z" fill-rule="evenodd"/><path fill="#ffffff" d="m485.0437 427.6188l55.74829 0l0 55.74829l-55.74829 0z" fill-rule="evenodd"/><path stroke="#000000" stroke-width="3.0" stroke-linejoin="round" stroke-linecap="butt" d="m485.0437 427.6188l55.74829 0l0 55.74829l-55.74829 0z" fill-rule="evenodd"/><path fill="#ffffff" d="m550.87836 427.6188l55.74829 0l0 55.74829l-55.74829 0z" fill-rule="evenodd"/><path stroke="#000000" stroke-width="3.0" stroke-linejoin="round" stroke-linecap="butt" d="m550.87836 427.6188l55.74829 0l0 55.74829l-55.74829 0z" fill-rule="evenodd"/><path fill="#ffffff" d="m616.713 427.6188l55.74829 0l0 55.74829l-55.74829 0z" fill-rule="evenodd"/><path stroke="#000000" stroke-width="3.0" stroke-linejoin="round" stroke-linecap="butt" d="m616.713 427.6188l55.74829 0l0 55.74829l-55.74829 0z" fill-rule="evenodd"/><path fill="#ffffff" d="m682.54767 427.6188l55.74829 0l0 55.74829l-55.74829 0z" fill-rule="evenodd"/><path stroke="#000000" stroke-width="3.0" stroke-linejoin="round" stroke-linecap="butt" d="m682.54767 427.6188l55.74829 0l0 55.74829l-55.74829 0z" fill-rule="evenodd"/><path fill="#ffffff" d="m748.3823 427.6188l55.74829 0l0 55.74829l-55.74829 0z" fill-rule="evenodd"/><path stroke="#000000" stroke-width="3.0" stroke-linejoin="round" stroke-linecap="butt" d="m748.3823 427.6188l55.74829 0l0 55.74829l-55.74829 0z" fill-rule="evenodd"/><path fill="#ffffff" d="m155.8702 491.50296l55.748306 0l0 55.74832l-55.748306 0z" fill-rule="evenodd"/><path stroke="#000000" stroke-width="3.0" stroke-linejoin="round" stroke-linecap="butt" d="m155.8702 491.50296l55.748306 0l0 55.74832l-55.748306 0z" fill-rule="evenodd"/><path fill="#ffffff" d="m221.70485 491.50296l55.748306 0l0 55.74832l-55.748306 0z" fill-rule="evenodd"/><path stroke="#000000" stroke-width="3.0" stroke-linejoin="round" stroke-linecap="butt" d="m221.70485 491.50296l55.748306 0l0 55.74832l-55.748306 0z" fill-rule="evenodd"/><path fill="#ffffff" d="m287.53952 491.50296l55.74829 0l0 55.74832l-55.74829 0z" fill-rule="evenodd"/><path stroke="#000000" stroke-width="3.0" stroke-linejoin="round" stroke-linecap="butt" d="m287.53952 491.50296l55.74829 0l0 55.74832l-55.74829 0z" fill-rule="evenodd"/><path fill="#ffffff" d="m353.37418 491.50296l55.74829 0l0 55.74832l-55.74829 0z" fill-rule="evenodd"/><path stroke="#000000" stroke-width="3.0" stroke-linejoin="round" stroke-linecap="butt" d="m353.37418 491.50296l55.74829 0l0 55.74832l-55.74829 0z" fill-rule="evenodd"/><path fill="#ffffff" d="m419.20883 491.50296l55.74832 0l0 55.74832l-55.74832 0z" fill-rule="evenodd"/><path stroke="#000000" stroke-width="3.0" stroke-linejoin="round" stroke-linecap="butt" d="m419.20883 491.50296l55.74832 0l0 55.74832l-55.74832 0z" fill-rule="evenodd"/><path fill="#ffffff" d="m485.0437 491.50296l55.74829 0l0 55.74832l-55.74829 0z" fill-rule="evenodd"/><path stroke="#000000" stroke-width="3.0" stroke-linejoin="round" stroke-linecap="butt" d="m485.0437 491.50296l55.74829 0l0 55.74832l-55.74829 0z" fill-rule="evenodd"/><path fill="#ffffff" d="m550.87836 491.50296l55.74829 0l0 55.74832l-55.74829 0z" fill-rule="evenodd"/><path stroke="#000000" stroke-width="3.0" stroke-linejoin="round" stroke-linecap="butt" d="m550.87836 491.50296l55.74829 0l0 55.74832l-55.74829 0z" fill-rule="evenodd"/><path fill="#ffffff" d="m616.713 491.50296l55.74829 0l0 55.74832l-55.74829 0z" fill-rule="evenodd"/><path stroke="#000000" stroke-width="3.0" stroke-linejoin="round" stroke-linecap="butt" d="m616.713 491.50296l55.74829 0l0 55.74832l-55.74829 0z" fill-rule="evenodd"/><path fill="#ffffff" d="m682.54767 491.50296l55.74829 0l0 55.74832l-55.74829 0z" fill-rule="evenodd"/><path stroke="#000000" stroke-width="3.0" stroke-linejoin="round" stroke-linecap="butt" d="m682.54767 491.50296l55.74829 0l0 55.74832l-55.74829 0z" fill-rule="evenodd"/><path fill="#ffffff" d="m748.3823 491.50296l55.74829 0l0 55.74832l-55.74829 0z" fill-rule="evenodd"/><path stroke="#000000" stroke-width="3.0" stroke-linejoin="round" stroke-linecap="butt" d="m748.3823 491.50296l55.74829 0l0 55.74832l-55.74829 0z" fill-rule="evenodd"/><path fill="#ffffff" d="m155.8702 555.3871l55.748306 0l0 55.748352l-55.748306 0z" fill-rule="evenodd"/><path stroke="#000000" stroke-width="3.0" stroke-linejoin="round" stroke-linecap="butt" d="m155.8702 555.3871l55.748306 0l0 55.748352l-55.748306 0z" fill-rule="evenodd"/><path fill="#ffffff" d="m221.70485 555.3871l55.748306 0l0 55.748352l-55.748306 0z" fill-rule="evenodd"/><path stroke="#000000" stroke-width="3.0" stroke-linejoin="round" stroke-linecap="butt" d="m221.70485 555.3871l55.748306 0l0 55.748352l-55.748306 0z" fill-rule="evenodd"/><path fill="#ffffff" d="m287.53952 555.3871l55.74829 0l0 55.748352l-55.74829 0z" fill-rule="evenodd"/><path stroke="#000000" stroke-width="3.0" stroke-linejoin="round" stroke-linecap="butt" d="m287.53952 555.3871l55.74829 0l0 55.748352l-55.74829 0z" fill-rule="evenodd"/><path fill="#ffffff" d="m353.37418 555.3871l55.74829 0l0 55.748352l-55.74829 0z" fill-rule="evenodd"/><path stroke="#000000" stroke-width="3.0" stroke-linejoin="round" stroke-linecap="butt" d="m353.37418 555.3871l55.74829 0l0 55.748352l-55.74829 0z" fill-rule="evenodd"/><path fill="#ffffff" d="m419.20883 555.3871l55.74832 0l0 55.748352l-55.74832 0z" fill-rule="evenodd"/><path stroke="#000000" stroke-width="3.0" stroke-linejoin="round" stroke-linecap="butt" d="m419.20883 555.3871l55.74832 0l0 55.748352l-55.74832 0z" fill-rule="evenodd"/><path fill="#ffffff" d="m485.0437 555.3871l55.74829 0l0 55.748352l-55.74829 0z" fill-rule="evenodd"/><path stroke="#000000" stroke-width="3.0" stroke-linejoin="round" stroke-linecap="butt" d="m485.0437 555.3871l55.74829 0l0 55.748352l-55.74829 0z" fill-rule="evenodd"/><path fill="#ffffff" d="m550.87836 555.3871l55.74829 0l0 55.748352l-55.74829 0z" fill-rule="evenodd"/><path stroke="#000000" stroke-width="3.0" stroke-linejoin="round" stroke-linecap="butt" d="m550.87836 555.3871l55.74829 0l0 55.748352l-55.74829 0z" fill-rule="evenodd"/><path fill="#ffffff" d="m616.713 555.3871l55.74829 0l0 55.748352l-55.74829 0z" fill-rule="evenodd"/><path stroke="#000000" stroke-width="3.0" stroke-linejoin="round" stroke-linecap="butt" d="m616.713 555.3871l55.74829 0l0 55.748352l-55.74829 0z" fill-rule="evenodd"/><path fill="#ffffff" d="m682.54767 555.3871l55.74829 0l0 55.748352l-55.74829 0z" fill-rule="evenodd"/><path stroke="#000000" stroke-width="3.0" stroke-linejoin="round" stroke-linecap="butt" d="m682.54767 555.3871l55.74829 0l0 55.748352l-55.74829 0z" fill-rule="evenodd"/><path fill="#ffffff" d="m748.3823 555.3871l55.74829 0l0 55.748352l-55.74829 0z" fill-rule="evenodd"/><path stroke="#000000" stroke-width="3.0" stroke-linejoin="round" stroke-linecap="butt" d="m748.3823 555.3871l55.74829 0l0 55.748352l-55.74829 0z" fill-rule="evenodd"/><path fill="#ffffff" d="m155.8702 619.2713l55.748306 0l0 55.74829l-55.748306 0z" fill-rule="evenodd"/><path stroke="#000000" stroke-width="3.0" stroke-linejoin="round" stroke-linecap="butt" d="m155.8702 619.2713l55.748306 0l0 55.74829l-55.748306 0z" fill-rule="evenodd"/><path fill="#ffffff" d="m221.70485 619.2713l55.748306 0l0 55.74829l-55.748306 0z" fill-rule="evenodd"/><path stroke="#000000" stroke-width="3.0" stroke-linejoin="round" stroke-linecap="butt" d="m221.70485 619.2713l55.748306 0l0 55.74829l-55.748306 0z" fill-rule="evenodd"/><path fill="#ffffff" d="m287.53952 619.2713l55.74829 0l0 55.74829l-55.74829 0z" fill-rule="evenodd"/><path stroke="#000000" stroke-width="3.0" stroke-linejoin="round" stroke-linecap="butt" d="m287.53952 619.2713l55.74829 0l0 55.74829l-55.74829 0z" fill-rule="evenodd"/><path fill="#ffffff" d="m353.37418 619.2713l55.74829 0l0 55.74829l-55.74829 0z" fill-rule="evenodd"/><path stroke="#000000" stroke-width="3.0" stroke-linejoin="round" stroke-linecap="butt" d="m353.37418 619.2713l55.74829 0l0 55.74829l-55.74829 0z" fill-rule="evenodd"/><path fill="#ffffff" d="m419.20883 619.2713l55.74832 0l0 55.74829l-55.74832 0z" fill-rule="evenodd"/><path stroke="#000000" stroke-width="3.0" stroke-linejoin="round" stroke-linecap="butt" d="m419.20883 619.2713l55.74832 0l0 55.74829l-55.74832 0z" fill-rule="evenodd"/><path fill="#ffffff" d="m485.0437 619.2713l55.74829 0l0 55.74829l-55.74829 0z" fill-rule="evenodd"/><path stroke="#000000" stroke-width="3.0" stroke-linejoin="round" stroke-linecap="butt" d="m485.0437 619.2713l55.74829 0l0 55.74829l-55.74829 0z" fill-rule="evenodd"/><path fill="#ffffff" d="m550.87836 619.2713l55.74829 0l0 55.74829l-55.74829 0z" fill-rule="evenodd"/><path stroke="#000000" stroke-width="3.0" stroke-linejoin="round" stroke-linecap="butt" d="m550.87836 619.2713l55.74829 0l0 55.74829l-55.74829 0z" fill-rule="evenodd"/><path fill="#ffffff" d="m616.713 619.2713l55.74829 0l0 55.74829l-55.74829 0z" fill-rule="evenodd"/><path stroke="#000000" stroke-width="3.0" stroke-linejoin="round" stroke-linecap="butt" d="m616.713 619.2713l55.74829 0l0 55.74829l-55.74829 0z" fill-rule="evenodd"/><path fill="#ffffff" d="m682.54767 619.2713l55.74829 0l0 55.74829l-55.74829 0z" fill-rule="evenodd"/><path stroke="#000000" stroke-width="3.0" stroke-linejoin="round" stroke-linecap="butt" d="m682.54767 619.2713l55.74829 0l0 55.74829l-55.74829 0z" fill-rule="evenodd"/><path fill="#ffffff" d="m748.3823 619.2713l55.74829 0l0 55.74829l-55.74829 0z" fill-rule="evenodd"/><path stroke="#000000" stroke-width="3.0" stroke-linejoin="round" stroke-linecap="butt" d="m748.3823 619.2713l55.74829 0l0 55.74829l-55.74829 0z" fill-rule="evenodd"/></g></svg>