<svg version="1.1" viewBox="0.0 0.0 960.0 720.0" fill="none" stroke="none" stroke-linecap="square" stroke-miterlimit="10" xmlns:xlink="http://www.w3.org/1999/xlink" xmlns="http://www.w3.org/2000/svg"><clipPath id="p.0"><path d="m0 0l960.0 0l0 720.0l-960.0 0l0 -720.0z" clip-rule="nonzero"/></clipPath><g clip-path="url(#p.0)"><path fill="#000000" fill-opacity="0.0" d="m0 0l960.0 0l0 720.0l-960.0 0z" fill-rule="evenodd"/><path fill="#ffffff" d="m46.123478 142.26228l193.51181 0l0 193.51183l-193.51181 0z" fill-rule="evenodd"/><path stroke="#000000" stroke-width="3.0" stroke-linejoin="round" stroke-linecap="butt" d="m46.123478 142.26228l193.51181 0l0 193.51183l-193.51181 0z" fill-rule="evenodd"/><path fill="#000000" d="m112.56981 248.8982l-11.03125 0l0 -2.078125l4.25 0l0 -13.640625l-4.25 0l0 -1.859375q0.859375 0 1.84375 -0.140625q0.984375 -0.15625 1.5 -0.421875q0.625 -0.34375 0.984375 -0.859375q0.359375 -0.53125 0.421875 -1.421875l2.125 0l0 18.34375l4.15625 0l0 2.078125zm23.269531 -0.140625q-0.71875 0.203125 -1.578125 0.3125q-0.84375 0.125 -1.515625 0.125q-2.34375 0 -3.5625 -1.25q-1.21875 -1.265625 -1.21875 -4.03125l0 -8.125l-1.734375 0l0 -2.15625l1.734375 0l0 -4.390625l2.578125 0l0 4.390625l5.296875 0l0 2.15625l-5.296875 0l0 6.953125q0 1.203125 0.046875 1.890625q0.0625 0.671875 0.390625 1.25q0.296875 0.546875 0.828125 0.8125q0.53125 0.25 1.609375 0.25q0.625 0 1.296875 -0.1875q0.6875 -0.1875 1.0 -0.3125l0.125 0l0 2.3125zm5.876953 -17.6875l-2.90625 0l0 -2.671875l2.90625 0l0 2.671875zm-0.171875 17.828125l-2.5625 0l0 -15.265625l2.5625 0l0 15.265625zm27.371094 0l-2.5625 0l0 -8.703125q0 -0.984375 -0.09375 -1.890625q-0.09375 -0.921875 -0.375 -1.46875q-0.3125 -0.578125 -0.90625 -0.875q-0.578125 -0.3125 -1.6875 -0.3125q-1.078125 0 -2.171875 0.546875q-1.078125 0.53125 -2.15625 1.375q0.046875 0.3125 0.0625 0.734375q0.03125 0.40625 0.03125 0.8125l0 9.78125l-2.5625 0l0 -8.703125q0 -1.0 -0.09375 -1.90625q-0.09375 -0.921875 -0.375 -1.46875q-0.3125 -0.578125 -0.90625 -0.875q-0.578125 -0.296875 -1.6875 -0.296875q-1.0625 0 -2.125 0.53125q-1.046875 0.515625 -2.109375 1.3125l0 11.40625l-2.5625 0l0 -15.265625l2.5625 0l0 1.6875q1.203125 -1.0 2.40625 -1.5625q1.203125 -0.5625 2.546875 -0.5625q1.5625 0 2.640625 0.65625q1.09375 0.65625 1.625 1.828125q1.5625 -1.3125 2.84375 -1.890625q1.28125 -0.59375 2.75 -0.59375q2.515625 0 3.703125 1.53125q1.203125 1.53125 1.203125 4.265625l0 9.90625zm17.734375 -7.375l-11.25 0q0 1.40625 0.421875 2.453125q0.421875 1.046875 1.15625 1.71875q0.71875 0.65625 1.6875 0.984375q0.984375 0.328125 2.15625 0.328125q1.5625 0 3.140625 -0.609375q1.578125 -0.625 2.25 -1.234375l0.140625 0l0 2.796875q-1.296875 0.546875 -2.65625 0.921875q-1.359375 0.375 -2.84375 0.375q-3.796875 0 -5.9375 -2.0625q-2.125 -2.0625 -2.125 -5.84375q0 -3.75 2.03125 -5.953125q2.046875 -2.203125 5.390625 -2.203125q3.09375 0 4.765625 1.8125q1.671875 1.796875 1.671875 5.125l0 1.390625zm-2.5 -1.96875q-0.015625 -2.015625 -1.03125 -3.125q-1.0 -1.109375 -3.046875 -1.109375q-2.0625 0 -3.296875 1.21875q-1.21875 1.21875 -1.375 3.015625l8.75 0z" fill-rule="nonzero"/><path fill="#ffffff" d="m264.798 142.26228l193.51181 0l0 193.51183l-193.51181 0z" fill-rule="evenodd"/><path stroke="#000000" stroke-width="3.0" stroke-linejoin="round" stroke-linecap="butt" d="m264.798 142.26228l193.51181 0l0 193.51183l-193.51181 0z" fill-rule="evenodd"/><path fill="#000000" d="m325.10666 248.8982l-13.78125 0l0 -2.859375q1.4375 -1.234375 2.875 -2.453125q1.4375 -1.234375 2.6875 -2.453125q2.625 -2.546875 3.59375 -4.03125q0.96875 -1.5 0.96875 -3.25q0 -1.578125 -1.046875 -2.46875q-1.046875 -0.90625 -2.90625 -0.90625q-1.25 0 -2.703125 0.4375q-1.453125 0.4375 -2.828125 1.34375l-0.140625 0l0 -2.875q0.96875 -0.46875 2.59375 -0.859375q1.625 -0.40625 3.140625 -0.40625q3.125 0 4.90625 1.515625q1.78125 1.5 1.78125 4.09375q0 1.15625 -0.296875 2.171875q-0.296875 1.0 -0.875 1.890625q-0.53125 0.859375 -1.25 1.6875q-0.71875 0.8125 -1.734375 1.8125q-1.46875 1.421875 -3.03125 2.78125q-1.546875 1.34375 -2.90625 2.484375l10.953125 0l0 2.34375zm22.113281 -0.140625q-0.71875 0.203125 -1.578125 0.3125q-0.84375 0.125 -1.515625 0.125q-2.34375 0 -3.5625 -1.25q-1.21875 -1.265625 -1.21875 -4.03125l0 -8.125l-1.734375 0l0 -2.15625l1.734375 0l0 -4.390625l2.578125 0l0 4.390625l5.296875 0l0 2.15625l-5.296875 0l0 6.953125q0 1.203125 0.046875 1.890625q0.0625 0.671875 0.390625 1.25q0.296875 0.546875 0.828125 0.8125q0.53125 0.25 1.609375 0.25q0.625 0 1.296875 -0.1875q0.6875 -0.1875 1.0 -0.3125l0.125 0l0 2.3125zm5.876953 -17.6875l-2.90625 0l0 -2.671875l2.90625 0l0 2.671875zm-0.171875 17.828125l-2.5625 0l0 -15.265625l2.5625 0l0 15.265625zm27.371094 0l-2.5625 0l0 -8.703125q0 -0.984375 -0.09375 -1.890625q-0.09375 -0.921875 -0.375 -1.46875q-0.3125 -0.578125 -0.90625 -0.875q-0.578125 -0.3125 -1.6875 -0.3125q-1.078125 0 -2.171875 0.546875q-1.078125 0.53125 -2.15625 1.375q0.046875 0.3125 0.0625 0.734375q0.03125 0.40625 0.03125 0.8125l0 9.78125l-2.5625 0l0 -8.703125q0 -1.0 -0.09375 -1.90625q-0.09375 -0.921875 -0.375 -1.46875q-0.3125 -0.578125 -0.90625 -0.875q-0.578125 -0.296875 -1.6875 -0.296875q-1.0625 0 -2.125 0.53125q-1.046875 0.515625 -2.109375 1.3125l0 11.40625l-2.5625 0l0 -15.265625l2.5625 0l0 1.6875q1.203125 -1.0 2.40625 -1.5625q1.203125 -0.5625 2.546875 -0.5625q1.5625 0 2.640625 0.65625q1.09375 0.65625 1.625 1.828125q1.5625 -1.3125 2.84375 -1.890625q1.28125 -0.59375 2.75 -0.59375q2.515625 0 3.703125 1.53125q1.203125 1.53125 1.203125 4.265625l0 9.90625zm17.734375 -7.375l-11.25 0q0 1.40625 0.421875 2.453125q0.421875 1.046875 1.15625 1.71875q0.71875 0.65625 1.6875 0.984375q0.984375 0.328125 2.15625 0.328125q1.5625 0 3.140625 -0.609375q1.578125 -0.625 2.25 -1.234375l0.140625 0l0 2.796875q-1.296875 0.546875 -2.65625 0.921875q-1.359375 0.375 -2.84375 0.375q-3.796875 0 -5.9375 -2.0625q-2.125 -2.0625 -2.125 -5.84375q0 -3.75 2.03125 -5.953125q2.046875 -2.203125 5.390625 -2.203125q3.09375 0 4.765625 1.8125q1.671875 1.796875 1.671875 5.125l0 1.390625zm-2.5 -1.96875q-0.015625 -2.015625 -1.03125 -3.125q-1.0 -1.109375 -3.046875 -1.109375q-2.0625 0 -3.296875 1.21875q-1.21875 1.21875 -1.375 3.015625l8.75 0zm17.304688 4.9375q0 2.09375 -1.734375 3.4375q-1.71875 1.34375 -4.71875 1.34375q-1.6875 0 -3.109375 -0.40625q-1.40625 -0.40625 -2.375 -0.890625l0 -2.875l0.140625 0q1.21875 0.90625 2.703125 1.453125q1.5 0.53125 2.859375 0.53125q1.703125 0 2.65625 -0.546875q0.953125 -0.546875 0.953125 -1.71875q0 -0.90625 -0.515625 -1.359375q-0.515625 -0.46875 -2.0 -0.796875q-0.546875 -0.125 -1.4375 -0.28125q-0.875 -0.171875 -1.59375 -0.359375q-2.015625 -0.53125 -2.859375 -1.5625q-0.828125 -1.03125 -0.828125 -2.546875q0 -0.9375 0.390625 -1.765625q0.390625 -0.84375 1.171875 -1.5q0.765625 -0.640625 1.953125 -1.015625q1.1875 -0.375 2.640625 -0.375q1.375 0 2.765625 0.34375q1.40625 0.328125 2.34375 0.796875l0 2.75l-0.140625 0q-0.984375 -0.71875 -2.390625 -1.21875q-1.40625 -0.5 -2.765625 -0.5q-1.40625 0 -2.375 0.546875q-0.96875 0.53125 -0.96875 1.59375q0 0.953125 0.578125 1.421875q0.578125 0.484375 1.859375 0.78125q0.71875 0.171875 1.59375 0.34375q0.890625 0.15625 1.46875 0.296875q1.796875 0.40625 2.765625 1.40625q0.96875 1.0 0.96875 2.671875z" fill-rule="nonzero"/><path fill="#ffffff" d="m483.47256 142.26228l193.51181 0l0 193.51183l-193.51181 0z" fill-rule="evenodd"/><path stroke="#000000" stroke-width="3.0" stroke-linejoin="round" stroke-linecap="butt" d="m483.47256 142.26228l193.51181 0l0 193.51183l-193.51181 0z" fill-rule="evenodd"/><path fill="#000000" d="m541.9843 239.10132q0.65625 0.578125 1.078125 1.46875q0.4375 0.890625 0.4375 2.296875q0 1.390625 -0.515625 2.5625q-0.5 1.15625 -1.421875 2.015625q-1.015625 0.953125 -2.40625 1.421875q-1.390625 0.453125 -3.046875 0.453125q-1.6875 0 -3.328125 -0.40625q-1.640625 -0.40625 -2.703125 -0.875l0 -2.859375l0.203125 0q1.171875 0.765625 2.734375 1.28125q1.578125 0.5 3.046875 0.5q0.859375 0 1.828125 -0.28125q0.96875 -0.296875 1.5625 -0.859375q0.640625 -0.59375 0.9375 -1.3125q0.3125 -0.734375 0.3125 -1.84375q0 -1.09375 -0.359375 -1.8125q-0.34375 -0.71875 -0.953125 -1.125q-0.609375 -0.421875 -1.484375 -0.578125q-0.875 -0.15625 -1.890625 -0.15625l-1.234375 0l0 -2.28125l0.953125 0q2.078125 0 3.3125 -0.859375q1.25 -0.875 1.25 -2.546875q0 -0.734375 -0.3125 -1.28125q-0.3125 -0.5625 -0.875 -0.90625q-0.59375 -0.359375 -1.265625 -0.5q-0.671875 -0.140625 -1.515625 -0.140625q-1.296875 0 -2.765625 0.46875q-1.453125 0.46875 -2.75 1.3125l-0.140625 0l0 -2.859375q0.96875 -0.46875 2.578125 -0.875q1.625 -0.40625 3.140625 -0.40625q1.5 0 2.625 0.28125q1.140625 0.265625 2.0625 0.859375q0.984375 0.65625 1.484375 1.59375q0.5 0.921875 0.5 2.171875q0 1.703125 -1.203125 2.96875q-1.1875 1.25 -2.8125 1.578125l0 0.203125q0.65625 0.109375 1.5 0.453125q0.859375 0.34375 1.4375 0.875zm23.910156 9.65625q-0.71875 0.203125 -1.578125 0.3125q-0.84375 0.125 -1.515625 0.125q-2.34375 0 -3.5625 -1.25q-1.21875 -1.265625 -1.21875 -4.03125l0 -8.125l-1.734375 0l0 -2.15625l1.734375 0l0 -4.390625l2.578125 0l0 4.390625l5.296875 0l0 2.15625l-5.296875 0l0 6.953125q0 1.203125 0.046875 1.890625q0.0625 0.671875 0.390625 1.25q0.296875 0.546875 0.828125 0.8125q0.53125 0.25 1.609375 0.25q0.625 0 1.296875 -0.1875q0.6875 -0.1875 1.0 -0.3125l0.125 0l0 2.3125zm5.876953 -17.6875l-2.90625 0l0 -2.671875l2.90625 0l0 2.671875zm-0.171875 17.828125l-2.5625 0l0 -15.265625l2.5625 0l0 15.265625zm27.371094 0l-2.5625 0l0 -8.703125q0 -0.984375 -0.09375 -1.890625q-0.09375 -0.921875 -0.375 -1.46875q-0.3125 -0.578125 -0.90625 -0.875q-0.578125 -0.3125 -1.6875 -0.3125q-1.078125 0 -2.171875 0.546875q-1.078125 0.53125 -2.15625 1.375q0.046875 0.3125 0.0625 0.734375q0.03125 0.40625 0.03125 0.8125l0 9.78125l-2.5625 0l0 -8.703125q0 -1.0 -0.09375 -1.90625q-0.09375 -0.921875 -0.375 -1.46875q-0.3125 -0.578125 -0.90625 -0.875q-0.578125 -0.296875 -1.6875 -0.296875q-1.0625 0 -2.125 0.53125q-1.046875 0.515625 -2.109375 1.3125l0 11.40625l-2.5625 0l0 -15.265625l2.5625 0l0 1.6875q1.203125 -1.0 2.40625 -1.5625q1.203125 -0.5625 2.546875 -0.5625q1.5625 0 2.640625 0.65625q1.09375 0.65625 1.625 1.828125q1.5625 -1.3125 2.84375 -1.890625q1.28125 -0.59375 2.75 -0.59375q2.515625 0 3.703125 1.53125q1.203125 1.53125 1.203125 4.265625l0 9.90625zm17.734375 -7.375l-11.25 0q0 1.40625 0.421875 2.453125q0.421875 1.046875 1.15625 1.71875q0.71875 0.65625 1.6875 0.984375q0.984375 0.328125 2.15625 0.328125q1.5625 0 3.140625 -0.609375q1.578125 -0.625 2.25 -1.234375l0.140625 0l0 2.796875q-1.296875 0.546875 -2.65625 0.921875q-1.359375 0.375 -2.84375 0.375q-3.796875 0 -5.9375 -2.0625q-2.125 -2.0625 -2.125 -5.84375q0 -3.75 2.03125 -5.953125q2.046875 -2.203125 5.390625 -2.203125q3.09375 0 4.765625 1.8125q1.671875 1.796875 1.671875 5.125l0 1.390625zm-2.5 -1.96875q-0.015625 -2.015625 -1.03125 -3.125q-1.0 -1.109375 -3.046875 -1.109375q-2.0625 0 -3.296875 1.21875q-1.21875 1.21875 -1.375 3.015625l8.75 0zm17.304688 4.9375q0 2.09375 -1.734375 3.4375q-1.71875 1.34375 -4.71875 1.34375q-1.6875 0 -3.109375 -0.40625q-1.40625 -0.40625 -2.375 -0.890625l0 -2.875l0.140625 0q1.21875 0.90625 2.703125 1.453125q1.5 0.53125 2.859375 0.53125q1.703125 0 2.65625 -0.546875q0.953125 -0.546875 0.953125 -1.71875q0 -0.90625 -0.515625 -1.359375q-0.515625 -0.46875 -2.0 -0.796875q-0.546875 -0.125 -1.4375 -0.28125q-0.875 -0.171875 -1.59375 -0.359375q-2.015625 -0.53125 -2.859375 -1.5625q-0.828125 -1.03125 -0.828125 -2.546875q0 -0.9375 0.390625 -1.765625q0.390625 -0.84375 1.171875 -1.5q0.765625 -0.640625 1.953125 -1.015625q1.1875 -0.375 2.640625 -0.375q1.375 0 2.765625 0.34375q1.40625 0.328125 2.34375 0.796875l0 2.75l-0.140625 0q-0.984375 -0.71875 -2.390625 -1.21875q-1.40625 -0.5 -2.765625 -0.5q-1.40625 0 -2.375 0.546875q-0.96875 0.53125 -0.96875 1.59375q0 0.953125 0.578125 1.421875q0.578125 0.484375 1.859375 0.78125q0.71875 0.171875 1.59375 0.34375q0.890625 0.15625 1.46875 0.296875q1.796875 0.40625 2.765625 1.40625q0.96875 1.0 0.96875 2.671875z" fill-rule="nonzero"/><path fill="#000000" fill-opacity="0.0" d="m702.147 187.02362l186.99213 0l0 180.97638l-186.99213 0z" fill-rule="evenodd"/><path fill="#ffffff" d="m711.147 196.02364l133.32812 0l0 159.99998l-133.32812 0l0 -159.99998z" fill-rule="nonzero"/><path fill="#000000" fill-opacity="0.0" d="m711.147 205.21317l133.32812 0l0 153.31433l-133.32812 0l0 -153.31433z" fill-rule="nonzero"/><path fill="#000000" d="m733.3501 311.39862q3.0625 0 5.140625 2.125q2.078125 2.109375 2.078125 5.09375q0 3.0 -2.125 5.125q-2.109375 2.109375 -5.09375 2.109375q-3.0 0 -5.125 -2.109375q-2.109375 -2.125 -2.109375 -5.125q0 -3.0625 2.109375 -5.140625q2.125 -2.078125 5.125 -2.078125zm44.46875 0q2.984375 0 5.09375 2.125q2.125 2.109375 2.125 5.09375q0 3.0 -2.125 5.125q-2.109375 2.109375 -5.09375 2.109375q-3.0 0 -5.125 -2.109375q-2.109375 -2.125 -2.109375 -5.125q0 -3.0625 2.109375 -5.140625q2.125 -2.078125 5.125 -2.078125zm44.453125 0q3.0 0 5.109375 2.125q2.125 2.109375 2.125 5.09375q0 3.0 -2.125 5.125q-2.109375 2.109375 -5.109375 2.109375q-2.984375 0 -5.109375 -2.109375q-2.109375 -2.125 -2.109375 -5.125q0 -3.0625 2.078125 -5.140625q2.078125 -2.078125 5.140625 -2.078125z" fill-rule="nonzero"/><path fill="#000000" fill-opacity="0.0" d="m844.4751 205.21317l0 0l0 153.31433l0 0l0 -153.31433z" fill-rule="nonzero"/></g></svg>