<svg version="1.1" viewBox="0.0 0.0 960.0 720.0" fill="none" stroke="none" stroke-linecap="square" stroke-miterlimit="10" xmlns:xlink="http://www.w3.org/1999/xlink" xmlns="http://www.w3.org/2000/svg"><clipPath id="p.0"><path d="m0 0l960.0 0l0 720.0l-960.0 0l0 -720.0z" clip-rule="nonzero"/></clipPath><g clip-path="url(#p.0)"><path fill="#000000" fill-opacity="0.0" d="m0 0l960.0 0l0 720.0l-960.0 0z" fill-rule="evenodd"/><path fill="#ffffff" d="m29.858267 42.55118l900.28345 0l0 610.2677l-900.28345 0z" fill-rule="evenodd"/><path stroke="#000000" stroke-width="2.0" stroke-linejoin="round" stroke-linecap="butt" d="m29.858267 42.55118l900.28345 0l0 610.2677l-900.28345 0z" fill-rule="evenodd"/><path fill="#ffd966" d="m51.372704 314.6509l272.09448 0l0 272.0945l-272.09448 0z" fill-rule="evenodd"/><path stroke="#000000" stroke-width="2.0" stroke-linejoin="round" stroke-linecap="butt" d="m51.372704 314.6509l272.09448 0l0 272.0945l-272.09448 0z" fill-rule="evenodd"/><path fill="#e06666" d="m51.372704 314.6378l136.04724 -201.5433l136.04724 201.5433z" fill-rule="evenodd"/><path stroke="#000000" stroke-width="2.0" stroke-linejoin="round" stroke-linecap="butt" d="m51.372704 314.6378l136.04724 -201.5433l136.04724 201.5433z" fill-rule="evenodd"/><path fill="#6d9eeb" d="m122.301834 418.77692l130.23622 0l0 167.9685l-130.23622 0z" fill-rule="evenodd"/><path stroke="#000000" stroke-width="2.0" stroke-linejoin="round" stroke-linecap="butt" d="m122.301834 418.77692l130.23622 0l0 167.9685l-130.23622 0z" fill-rule="evenodd"/><path fill="#e06666" d="m230.6693 502.76117l0 0c0 -3.4528809 2.7991028 -6.2519836 6.2519684 -6.2519836l0 0c1.6581268 0 3.2483368 0.6586914 4.420807 1.8311462c1.1724701 1.1724854 1.8311615 2.7626953 1.8311615 4.4208374l0 0c0 3.4528503 -2.7991028 6.251953 -6.2519684 6.251953l0 0c-3.4528656 0 -6.2519684 -2.7991028 -6.2519684 -6.251953z" fill-rule="evenodd"/><path stroke="#000000" stroke-width="2.0" stroke-linejoin="round" stroke-linecap="butt" d="m230.6693 502.76117l0 0c0 -3.4528809 2.7991028 -6.2519836 6.2519684 -6.2519836l0 0c1.6581268 0 3.2483368 0.6586914 4.420807 1.8311462c1.1724701 1.1724854 1.8311615 2.7626953 1.8311615 4.4208374l0 0c0 3.4528503 -2.7991028 6.251953 -6.2519684 6.251953l0 0c-3.4528656 0 -6.2519684 -2.7991028 -6.2519684 -6.251953z" fill-rule="evenodd"/></g></svg>