<?xml version="1.0" encoding="UTF-8" standalone="no"?>
<!--part of the rodentia icon theme by sixsixfive released under CC0 (https://creativecommons.org/publicdomain/zero/1.0/) on openclipart-->
<svg xmlns="http://www.w3.org/2000/svg" xmlns:xlink="http://www.w3.org/1999/xlink" viewBox="0 0 48 48">
 <defs id="0">
  <linearGradient id="A">
   <stop id="K" stop-color="#fff" stop-opacity="0.6"/>
   <stop id="L" offset="1" stop-color="#fff" stop-opacity="0"/>
  </linearGradient>
  <linearGradient id="B">
   <stop id="M" stop-color="#fff" stop-opacity="0.8"/>
   <stop id="N" offset="1" stop-color="#fff" stop-opacity="0"/>
  </linearGradient>
  <linearGradient y1="3.063" x2="0" y2="44.906" id="C" xlink:href="#B" gradientUnits="userSpaceOnUse"/>
  <linearGradient x1="3.938" y1="-11.978" x2="16.902" y2="21.09" id="D" xlink:href="#A" gradientUnits="userSpaceOnUse"/>
  <linearGradient id="E">
   <stop id="O" stop-color="#2e3436" stop-opacity="0.5"/>
   <stop id="P" offset="1" stop-color="#2e3436" stop-opacity="0.015"/>
  </linearGradient>
  <radialGradient cx="24.431" cy="52.28" r="21.578" id="F" xlink:href="#E" gradientUnits="userSpaceOnUse" gradientTransform="matrix(1,0,0,0.2975207,0,36.725592)"/>
 </defs>
 <path d="M 24.59375,2.03125 A 0.99538075,0.99538075 0 0 0 24.3125,2.125 c -0.839533,0.3461289 -1.052996,1.0872476 -1.03125,1.78125 6.38e-4,0.020377 -0.001,0.042221 0,0.0625 l 0,4.21875 -7.4375,0.0625 C 7.0312318,8.3596363 -0.86337789,19.178691 4.6875,31.0625 l 0,0.03125 1.21875,2.59375 a 0.99538075,0.99538075 0 0 0 1.34375,0.5 l 5.25,-2.46875 a 0.99538075,0.99538075 0 0 0 0.46875,-1.3125 L 11.75,27.78125 a 0.99538075,0.99538075 0 0 0 0,-0.03125 c -1.8443905,-3.934092 -1.330164,-6.757694 -0.125,-8.71875 1.197088,-1.947915 3.260947,-2.960281 4.21875,-3 l 0.03125,0 0.03125,0 7.375,0 0,5.03125 0,0.03125 c -0.0082,0.370195 0.07594,0.706899 0.25,1.03125 0.179052,0.33365 0.472637,0.691233 0.96875,0.8125 a 0.99538075,0.99538075 0 0 0 0.09375,0 c 0.162498,0.02609 0.275038,0.02608 0.4375,0 0.359118,-0.05367 0.595833,-0.233378 0.71875,-0.34375 0.0065,-0.0058 0.02545,-0.02594 0.03125,-0.03125 l 4.875,-4.21875 4.90625,-4.25 0.03125,-0.03125 c 0.02952,-0.02452 0.008,-0.0092 0.03125,-0.03125 0.175181,-0.165965 0.285719,-0.335931 0.21875,-0.25 0.387272,-0.496868 0.491515,-1.078653 0.375,-1.6875 -0.06089,-0.306261 -0.163228,-0.674866 -0.5,-1 A 0.99538075,0.99538075 0 0 0 35.6875,11.0625 L 30.8125,6.78125 C 30.78051,6.744625 30.74989,6.717679 30.71875,6.6875 30.69799,6.667381 30.68153,6.646957 30.65625,6.625 L 25.75,2.3125 A 0.99538075,0.99538075 0 0 0 25.65625,2.25 C 25.386505,2.0616822 25.115143,2.1415556 24.84375,2.15625 l 0,-0.125 c -0.08311,-0.0067 -0.166876,-0.0067 -0.25,0 z M 41.125,13.71875 A 0.99538075,0.99538075 0 0 0 40.75,13.8125 l -5.25,2.46875 a 0.99538075,0.99538075 0 0 0 -0.46875,1.3125 l 1.21875,2.625 a 0.99538075,0.99538075 0 0 0 0,0.03125 c 1.844384,3.933994 1.33019,6.757683 0.125,8.71875 -1.197114,1.947926 -3.26102,2.960224 -4.21875,3 -0.0065,2.68e-4 -0.02489,-1.8e-4 -0.03125,0 l -0.03125,0 -7.375,0 0,-5.03125 c 3.2e-4,-0.01157 -1.3e-4,-0.01978 0,-0.03125 0.0053,-0.471372 -0.137944,-0.878693 -0.34375,-1.1875 -0.227048,-0.340669 -0.710362,-0.732588 -1.3125,-0.6875 a 0.99538075,0.99538075 0 0 0 -0.09375,0.03125 c -0.359069,0.05366 -0.595818,0.233366 -0.71875,0.34375 -0.0065,0.0058 -0.02545,0.02594 -0.03125,0.03125 l -4.875,4.21875 -4.90625,4.25 c -0.0082,0.006 0.0081,0.02516 0,0.03125 l -0.0625,0.03125 c -0.660952,0.533911 -0.724223,1.259035 -0.59375,1.9375 0.08109,0.407813 0.260898,0.739003 0.53125,1 a 0.99538075,0.99538075 0 0 0 0.03125,0.03125 l 4.84375,4.28125 0.09375,0.09375 c 0.02076,0.02011 0.03722,0.04055 0.0625,0.0625 L 22.25,45.6875 a 0.99538075,0.99538075 0 0 0 0.09375,0.0625 c 0.384832,0.268685 0.875654,0.233252 1.15625,0.15625 l 0,0.03125 c 0.01727,-0.0042 0.01443,-0.0265 0.03125,-0.03125 0.0071,-0.0021 0.02448,0.0022 0.03125,0 0.0076,-0.0023 -0.0075,-0.02885 0,-0.03125 0.437677,-0.14056 0.739625,-0.439536 0.90625,-0.75 0.174106,-0.324403 0.258297,-0.660995 0.25,-1.03125 -2.38e-4,-0.01061 3.77e-4,-0.02061 0,-0.03125 l 0,-4.25 7.4375,-0.0625 C 40.968616,39.640359 48.863384,28.821268 43.3125,16.9375 l 0,-0.03125 -1.21875,-2.59375 A 0.99538075,0.99538075 0 0 0 41.125,13.71875 z" id="1" fill="#2e3436"/>
 <text x="-828.23" y="-458.93" id="2" font-size="28"><tspan x="-828.23" y="-458.93" id="G"/>
 </text>
 <text x="-828.23" y="-458.93" id="3" font-size="28"><tspan x="-828.23" y="-458.93" id="H"/>
 </text>
 <text x="1632.44" y="-609.18" id="4" font-size="28"><tspan x="1632.44" y="-609.18" id="I"/>
 </text>
 <text x="1632.44" y="-609.18" id="5" font-size="28"><tspan x="1632.44" y="-609.18" id="J"/>
 </text>
 <path d="m 24.699317,3.0189084 c -0.256982,0.105951 -0.42809,0.472713 -0.407888,0.874281 l 0,5.303372 -8.450324,0.05868 C 7.8377913,9.3548104 0.2557056,19.278788 5.5838975,30.643538 l 1.2240328,2.622454 5.2449777,-2.44767 -1.223852,-2.622489 C 6.9135456,19.844034 12.912611,15.107467 15.841105,15.024964 l 0.05873,0 8.392004,0 0,6.060881 c -0.0151,0.42865 0.185936,0.805578 0.466207,0.874086 0.03901,0.0063 0.07835,0.0063 0.117361,0 0.08252,-0.01233 0.162164,-0.05243 0.233099,-0.117354 l 4.89541,-4.254352 4.95373,-4.312536 c 0.04218,-0.03089 0.08161,-0.06972 0.117351,-0.115576 0.166853,-0.214074 0.23507,-0.556278 0.174248,-0.874103 -0.03829,-0.192587 -0.120997,-0.358021 -0.233099,-0.466249 l -4.95373,-4.3710876 c -0.01871,-0.021415 -0.03829,-0.041013 -0.05863,-0.058681 l -4.895438,-4.312604 c -0.109247,-0.076269 -0.231917,-0.09686 -0.349568,-0.058677 -0.01953,-0.00157 -0.0391,-0.00157 -0.05863,0 l -8.4e-4,1.97e-4 1.5e-5,0 z m 16.492938,11.7141126 -5.244987,2.447685 1.223862,2.62261 c 3.915511,8.351621 -2.083744,13.088212 -5.012059,13.170892 l -0.05863,0 -8.392178,0 0,-6.060903 c 0.0065,-0.235943 -0.05291,-0.465151 -0.163768,-0.631497 -0.110864,-0.166344 -0.262911,-0.254466 -0.418908,-0.242785 -0.08252,0.01233 -0.162171,0.05243 -0.233109,0.117353 l -4.895401,4.254411 -4.953725,4.312554 c -0.243958,0.178587 -0.367103,0.597233 -0.291428,0.990746 0.03829,0.192573 0.121001,0.357993 0.233099,0.466212 l 4.953725,4.370893 c 0.01871,0.02141 0.03829,0.04101 0.05863,0.05868 l 4.89541,4.31273 c 0.10925,0.07628 0.231923,0.09687 0.349577,0.05868 0.280324,-0.06852 0.481381,-0.445557 0.466208,-0.874283 l 0,-5.303318 8.450498,-0.05868 c 8.003143,-0.09957 15.58522,-10.023567 10.257028,-21.388265 l -1.223844,-2.622472 0,-0.0013 0,1.1e-5 z" id="6" fill="#555753"/>
 <path d="m 24.875,3.5625 c 0.02793,0.00244 -0.07335,0.096844 -0.0625,0.3125 a 0.53117729,0.53117729 0 0 1 0,0.03125 l 0,5.28125 a 0.53117729,0.53117729 0 0 1 -0.53125,0.53125 l -8.4375,0.0625 C 8.2760165,9.8754 0.86697671,19.355725 6.0625,30.4375 l 1,2.15625 4.3125,-2.03125 -1,-2.15625 C 8.3567487,24.101312 8.8493573,20.599592 10.3125,18.21875 11.775643,15.837908 14.104563,14.548997 15.84375,14.5 l 0.0625,0 8.375,0 a 0.53117729,0.53117729 0 0 1 0.53125,0.53125 l 0,6.0625 a 0.53117729,0.53117729 0 0 1 0,0.03125 c -0.0035,0.09846 0.03794,0.153471 0.0625,0.21875 L 29.65625,17.1875 34.625,12.875 a 0.53117729,0.53117729 0 0 1 0.03125,-0.03125 c 0.04923,-0.06316 0.0936,-0.306226 0.0625,-0.46875 -0.02098,-0.105541 -0.02204,-0.139032 -0.03125,-0.15625 L 34.65625,12.1875 29.71875,7.84375 a 0.53117729,0.53117729 0 0 1 -0.0625,-0.0625 L 24.875,3.5625 z m 16.0625,11.84375 -4.3125,2.03125 1,2.15625 c 2.018255,4.304854 1.525663,7.806663 0.0625,10.1875 -1.463163,2.380837 -3.79216,3.669647 -5.53125,3.71875 l -0.0625,0 -8.375,0 A 0.53117729,0.53117729 0 0 1 23.1875,32.96875 l 0,-6.0625 C 23.1893,26.84111 23.15266,26.756032 23.125,26.6875 l -4.78125,4.125 -4.96875,4.3125 a 0.53117729,0.53117729 0 0 1 -0.03125,0.03125 c 0.01927,-0.01411 -0.10618,0.241613 -0.0625,0.46875 0.01236,0.06217 0.0338,0.118128 0.0625,0.15625 l 0.03125,0.03125 4.90625,4.34375 a 0.53117729,0.53117729 0 0 1 0.0625,0.0625 l 4.78125,4.1875 c 0.03332,-0.06208 0.06692,-0.156315 0.0625,-0.28125 a 0.53117729,0.53117729 0 0 1 0,-0.03125 l 0,-5.28125 a 0.53117729,0.53117729 0 0 1 0.53125,-0.53125 l 8.4375,-0.0625 C 39.723799,38.1246 47.13302,28.644217 41.9375,17.5625 l -1,-2.15625 z" id="7" opacity="0.8" fill="none" stroke="url(#C)" stroke-linejoin="round"/>
 <path d="M 24.9375,3 C 24.87847,2.99009 24.808826,3.012158 24.75,3.03125 c -0.01953,-0.00157 -0.04297,-0.00157 -0.0625,0 -0.256983,0.1059509 -0.426452,0.473432 -0.40625,0.875 l 0,5.28125 -8.4375,0.0625 C 10.224611,9.3199076 4.8189113,14.23959 3.9375,21.09375 c 2.1819362,-0.787967 4.4048323,-1.536276 6.65625,-2.25 1.352939,-2.446359 3.716512,-3.769298 5.25,-3.8125 l 0.0625,0 8.375,0 0,0.03125 c 3.633806,-0.882889 7.297697,-1.696975 10.96875,-2.40625 0.01502,-0.125171 0.02433,-0.24787 0,-0.375 -0.03829,-0.192587 -0.106648,-0.360522 -0.21875,-0.46875 L 30.0625,7.4375 C 30.043794,7.4160852 30.020345,7.392668 30,7.375 L 25.09375,3.0625 C 25.039126,3.0243656 24.99653,3.0099085 24.9375,3 z" id="8" fill="url(#D)"/>
 <path d="m 46.009577,52.279961 a 21.578135,6.4199409 0 1 1 -43.1562693,0 21.578135,6.4199409 0 1 1 43.1562693,0 z" transform="matrix(1.112237,0,0,0.3664587,-3.173554,26.48891)" id="9" opacity="0.8" fill="url(#F)"/>
</svg>
