<svg version="1.1" viewBox="0.0 0.0 960.0 720.0" fill="none" stroke="none" stroke-linecap="square" stroke-miterlimit="10" xmlns:xlink="http://www.w3.org/1999/xlink" xmlns="http://www.w3.org/2000/svg"><clipPath id="p.0"><path d="m0 0l960.0 0l0 720.0l-960.0 0l0 -720.0z" clip-rule="nonzero"/></clipPath><g clip-path="url(#p.0)"><path fill="#000000" fill-opacity="0.0" d="m0 0l960.0 0l0 720.0l-960.0 0z" fill-rule="evenodd"/><path fill="#e06666" d="m204.53543 360.0l0 0c0 -152.13487 123.32968 -275.46457 275.46457 -275.46457l0 0c73.05774 0 143.12323 29.02208 194.78284 80.6817c51.659668 51.659637 80.6817 121.72513 80.6817 194.78287l0 0c0 152.13489 -123.32965 275.46454 -275.46454 275.46454l0 0c-152.13489 0 -275.46457 -123.32965 -275.46457 -275.46454z" fill-rule="evenodd"/><path stroke="#000000" stroke-width="2.0" stroke-linejoin="round" stroke-linecap="butt" d="m204.53543 360.0l0 0c0 -152.13487 123.32968 -275.46457 275.46457 -275.46457l0 0c73.05774 0 143.12323 29.02208 194.78284 80.6817c51.659668 51.659637 80.6817 121.72513 80.6817 194.78287l0 0c0 152.13489 -123.32965 275.46454 -275.46454 275.46454l0 0c-152.13489 0 -275.46457 -123.32965 -275.46457 -275.46454z" fill-rule="evenodd"/><path fill="#ffffff" d="m311.55905 360.0l336.88187 0l0 105.03937l-336.88187 0z" fill-rule="evenodd"/><path fill="#000000" d="m433.99213 436.49625q-1.828125 0.484375 -3.984375 0.796875q-2.15625 0.3125 -3.84375 0.3125q-5.90625 0 -8.984375 -3.171875q-3.0625 -3.1875 -3.0625 -10.1875l0 -20.484375l-4.375 0l0 -5.453125l4.375 0l0 -11.078125l6.484375 0l0 11.078125l13.390625 0l0 5.453125l-13.390625 0l0 17.546875q0 3.046875 0.140625 4.75q0.140625 1.703125 0.96875 3.1875q0.765625 1.390625 2.09375 2.03125q1.328125 0.625 4.046875 0.625q1.59375 0 3.3125 -0.453125q1.71875 -0.46875 2.484375 -0.78125l0.34375 0l0 5.828125zm31.872833 -31.125l-0.34375 0q-1.4375 -0.34375 -2.8125 -0.5q-1.359375 -0.15625 -3.21875 -0.15625q-3.0 0 -5.796875 1.328125q-2.796875 1.328125 -5.375 3.4375l0 27.359375l-6.5 0l0 -38.53125l6.5 0l0 5.6875q3.859375 -3.109375 6.796875 -4.390625q2.953125 -1.296875 6.03125 -1.296875q1.6875 0 2.4375 0.09375q0.765625 0.078125 2.28125 0.3125l0 6.65625zm38.059357 31.46875l-6.484375 0l0 -4.28125q-3.28125 2.59375 -6.28125 3.96875q-3.0 1.375 -6.625 1.375q-6.0625 0 -9.453125 -3.703125q-3.375 -3.703125 -3.375 -10.890625l0 -25.0l6.484375 0l0 21.9375q0 2.9375 0.265625 5.03125q0.28125 2.078125 1.1875 3.5625q0.921875 1.515625 2.40625 2.203125q1.484375 0.6875 4.3125 0.6875q2.515625 0 5.5 -1.3125q2.984375 -1.3125 5.578125 -3.34375l0 -28.765625l6.484375 0l0 38.53125zm45.02466 -18.59375l-28.390625 0q0 3.546875 1.0625 6.1875q1.078125 2.640625 2.9375 4.328125q1.796875 1.65625 4.25 2.484375q2.46875 0.828125 5.4375 0.828125q3.9375 0 7.921875 -1.5625q3.984375 -1.578125 5.671875 -3.09375l0.34375 0l0 7.078125q-3.265625 1.375 -6.6875 2.3125q-3.421875 0.921875 -7.171875 0.921875q-9.59375 0 -14.984375 -5.1875q-5.375 -5.1875 -5.375 -14.75q0 -9.453125 5.15625 -15.0q5.15625 -5.5625 13.578125 -5.5625q7.796875 0 12.015625 4.5625q4.234375 4.546875 4.234375 12.9375l0 3.515625zm-6.3125 -4.96875q-0.03125 -5.109375 -2.578125 -7.90625q-2.53125 -2.796875 -7.703125 -2.796875q-5.203125 0 -8.296875 3.078125q-3.09375 3.0625 -3.5 7.625l22.078125 0z" fill-rule="nonzero"/><path fill="#ffffff" d="m311.55905 254.96063l336.88187 0l0 105.03937l-336.88187 0z" fill-rule="evenodd"/><path fill="#000000" d="m365.04633 312.23813q0 4.828125 -1.359375 8.703125q-1.359375 3.859375 -3.671875 6.484375q-2.453125 2.71875 -5.390625 4.078125q-2.9375 1.359375 -6.453125 1.359375q-3.28125 0 -5.734375 -0.78125q-2.4375 -0.765625 -4.8125 -2.078125l-0.421875 1.796875l-6.078125 0l0 -53.6875l6.5 0l0 19.1875q2.71875 -2.25 5.78125 -3.671875q3.078125 -1.4375 6.90625 -1.4375q6.828125 0 10.78125 5.25q3.953125 5.234375 3.953125 14.796875zm-6.6875 0.171875q0 -6.90625 -2.28125 -10.46875q-2.28125 -3.578125 -7.34375 -3.578125q-2.828125 0 -5.734375 1.234375q-2.890625 1.21875 -5.375 3.15625l0 22.078125q2.75 1.234375 4.734375 1.71875q1.984375 0.484375 4.5 0.484375q5.390625 0 8.4375 -3.53125q3.0625 -3.53125 3.0625 -11.09375zm49.647156 0.140625q0 9.421875 -4.84375 14.875q-4.828125 5.4375 -12.9375 5.4375q-8.171875 0 -12.984375 -5.4375q-4.8125 -5.453125 -4.8125 -14.875q0 -9.421875 4.8125 -14.890625q4.8125 -5.46875 12.984375 -5.46875q8.109375 0 12.9375 5.46875q4.84375 5.46875 4.84375 14.890625zm-6.703125 0q0 -7.484375 -2.9375 -11.125q-2.921875 -3.640625 -8.140625 -3.640625q-5.265625 0 -8.1875 3.640625q-2.921875 3.640625 -2.921875 11.125q0 7.25 2.9375 11.0q2.9375 3.734375 8.171875 3.734375q5.1875 0 8.125 -3.703125q2.953125 -3.71875 2.953125 -11.03125zm49.586792 0q0 9.421875 -4.84375 14.875q-4.828125 5.4375 -12.9375 5.4375q-8.171875 0 -12.984375 -5.4375q-4.8125 -5.453125 -4.8125 -14.875q0 -9.421875 4.8125 -14.890625q4.8125 -5.46875 12.984375 -5.46875q8.109375 0 12.9375 5.46875q4.84375 5.46875 4.84375 14.890625zm-6.703125 0q0 -7.484375 -2.9375 -11.125q-2.921875 -3.640625 -8.140625 -3.640625q-5.265625 0 -8.1875 3.640625q-2.921875 3.640625 -2.921875 11.125q0 7.25 2.9375 11.0q2.9375 3.734375 8.171875 3.734375q5.1875 0 8.125 -3.703125q2.953125 -3.71875 2.953125 -11.03125zm23.289886 19.25l-6.484375 0l0 -53.6875l6.484375 0l0 53.6875zm45.092194 -18.59375l-28.390625 0q0 3.546875 1.0625 6.1875q1.078125 2.640625 2.9375 4.328125q1.796875 1.65625 4.25 2.484375q2.46875 0.828125 5.4375 0.828125q3.9375 0 7.921875 -1.5625q3.984375 -1.578125 5.671875 -3.09375l0.34375 0l0 7.078125q-3.265625 1.375 -6.6875 2.3125q-3.421875 0.921875 -7.171875 0.921875q-9.59375 0 -14.984375 -5.1875q-5.375 -5.1875 -5.375 -14.75q0 -9.453125 5.15625 -15.0q5.15625 -5.5625 13.578125 -5.5625q7.796875 0 12.015625 4.5625q4.234375 4.546875 4.234375 12.9375l0 3.515625zm-6.3125 -4.96875q-0.03125 -5.109375 -2.578125 -7.90625q-2.53125 -2.796875 -7.703125 -2.796875q-5.203125 0 -8.296875 3.078125q-3.09375 3.0625 -3.5 7.625l22.078125 0zm46.09015 23.5625l-6.453125 0l0 -4.109375q-0.859375 0.59375 -2.328125 1.640625q-1.46875 1.046875 -2.84375 1.671875q-1.625 0.796875 -3.734375 1.328125q-2.09375 0.53125 -4.921875 0.53125q-5.21875 0 -8.84375 -3.4375q-3.609375 -3.453125 -3.609375 -8.796875q0 -4.390625 1.875 -7.09375q1.875 -2.703125 5.359375 -4.265625q3.53125 -1.546875 8.453125 -2.09375q4.9375 -0.5625 10.59375 -0.84375l0 -1.0q0 -2.203125 -0.78125 -3.640625q-0.765625 -1.453125 -2.21875 -2.28125q-1.375 -0.796875 -3.3125 -1.0625q-1.9375 -0.28125 -4.03125 -0.28125q-2.5625 0 -5.703125 0.671875q-3.140625 0.671875 -6.484375 1.9375l-0.34375 0l0 -6.578125q1.90625 -0.515625 5.484375 -1.140625q3.59375 -0.625 7.078125 -0.625q4.0625 0 7.078125 0.671875q3.03125 0.671875 5.234375 2.296875q2.171875 1.578125 3.3125 4.109375q1.140625 2.515625 1.140625 6.234375l0 26.15625zm-6.453125 -9.484375l0 -10.734375q-2.96875 0.171875 -6.984375 0.515625q-4.015625 0.34375 -6.359375 1.0q-2.796875 0.796875 -4.53125 2.46875q-1.71875 1.671875 -1.71875 4.609375q0 3.3125 2.0 4.984375q2.0 1.671875 6.109375 1.671875q3.40625 0 6.234375 -1.328125q2.84375 -1.328125 5.25 -3.1875zm51.169556 9.484375l-6.484375 0l0 -21.9375q0 -2.65625 -0.3125 -4.984375q-0.3125 -2.328125 -1.140625 -3.640625q-0.859375 -1.453125 -2.484375 -2.15625q-1.625 -0.71875 -4.203125 -0.71875q-2.65625 0 -5.5625 1.3125q-2.890625 1.3125 -5.546875 3.359375l0 28.765625l-6.5 0l0 -38.53125l6.5 0l0 4.265625q3.03125 -2.515625 6.265625 -3.921875q3.25 -1.421875 6.671875 -1.421875q6.234375 0 9.515625 3.765625q3.28125 3.765625 3.28125 10.828125l0 25.015625zm26.290283 -28.703125l-8.25 0l0 -9.828125l8.25 0l0 9.828125zm0 28.703125l-8.25 0l0 -9.828125l8.25 0l0 9.828125z" fill-rule="nonzero"/></g></svg>