<svg version="1.1" viewBox="0.0 0.0 960.0 720.0" fill="none" stroke="none" stroke-linecap="square" stroke-miterlimit="10" xmlns:xlink="http://www.w3.org/1999/xlink" xmlns="http://www.w3.org/2000/svg"><clipPath id="p.0"><path d="m0 0l960.0 0l0 720.0l-960.0 0l0 -720.0z" clip-rule="nonzero"/></clipPath><g clip-path="url(#p.0)"><path fill="#000000" fill-opacity="0.0" d="m0 0l960.0 0l0 720.0l-960.0 0z" fill-rule="evenodd"/><path fill="#4a86e8" d="m88.64567 658.4094l391.35434 -596.81885l391.3543 596.81885z" fill-rule="evenodd"/><path stroke="#000000" stroke-width="2.0" stroke-linejoin="round" stroke-linecap="butt" d="m88.64567 658.4094l391.35434 -596.81885l391.3543 596.81885z" fill-rule="evenodd"/><path fill="#ffffff" d="m319.3071 430.77692l321.38583 0l0 105.03937l-321.38583 0z" fill-rule="evenodd"/><path fill="#000000" d="m499.04044 493.1638l-7.625 0l0 14.453125l-6.625 0l0 -14.453125l-24.59375 0l0 -7.9375l24.875 -28.984375l6.34375 0l0 31.40625l7.625 0l0 5.515625zm-14.25 -5.515625l0 -23.1875l-19.90625 23.1875l19.90625 0z" fill-rule="nonzero"/><path fill="#ffffff" d="m319.3071 325.73752l321.38583 0l0 105.0394l-321.38583 0z" fill-rule="evenodd"/><path fill="#000000" d="m352.152 357.59314l-7.3125 0l0 -6.734375l7.3125 0l0 6.734375zm-0.40625 44.984375l-6.484375 0l0 -38.53125l6.484375 0l0 38.53125zm45.060944 0l-6.484375 0l0 -21.9375q0 -2.65625 -0.3125 -4.984375q-0.3125 -2.328125 -1.140625 -3.640625q-0.859375 -1.453125 -2.484375 -2.15625q-1.625 -0.71875 -4.203125 -0.71875q-2.65625 0 -5.5625 1.3125q-2.890625 1.3125 -5.546875 3.359375l0 28.765625l-6.5 0l0 -38.53125l6.5 0l0 4.265625q3.03125 -2.515625 6.265625 -3.921875q3.25 -1.421875 6.671875 -1.421875q6.234375 0 9.515625 3.765625q3.28125 3.765625 3.28125 10.828125l0 25.015625zm32.49341 -0.34375q-1.828125 0.484375 -3.984375 0.796875q-2.15625 0.3125 -3.84375 0.3125q-5.90625 0 -8.984375 -3.171875q-3.0625 -3.1875 -3.0625 -10.1875l0 -20.484375l-4.375 0l0 -5.453125l4.375 0l0 -11.078125l6.484375 0l0 11.078125l13.390625 0l0 5.453125l-13.390625 0l0 17.546875q0 3.046875 0.140625 4.75q0.140625 1.703125 0.96875 3.1875q0.765625 1.390625 2.09375 2.03125q1.328125 0.625 4.046875 0.625q1.59375 0 3.3125 -0.453125q1.71875 -0.46875 2.484375 -0.78125l0.34375 0l0 5.828125zm40.091614 -18.25l-28.390625 0q0 3.546875 1.0625 6.1875q1.078125 2.640625 2.9375 4.328125q1.796875 1.65625 4.25 2.484375q2.46875 0.828125 5.4375 0.828125q3.9375 0 7.921875 -1.5625q3.984375 -1.578125 5.671875 -3.09375l0.34375 0l0 7.078125q-3.265625 1.375 -6.6875 2.3125q-3.421875 0.921875 -7.171875 0.921875q-9.59375 0 -14.984375 -5.1875q-5.375 -5.1875 -5.375 -14.75q0 -9.453125 5.15625 -15.0q5.15625 -5.5625 13.578125 -5.5625q7.796875 0 12.015625 4.5625q4.234375 4.546875 4.234375 12.9375l0 3.515625zm-6.3125 -4.96875q-0.03125 -5.109375 -2.578125 -7.90625q-2.53125 -2.796875 -7.703125 -2.796875q-5.203125 0 -8.296875 3.078125q-3.09375 3.0625 -3.5 7.625l22.078125 0zm47.40265 19.1875q0 9.796875 -4.453125 14.375q-4.453125 4.59375 -13.6875 4.59375q-3.078125 0 -6.0 -0.4375q-2.90625 -0.421875 -5.734375 -1.21875l0 -6.625l0.34375 0q1.578125 0.625 5.03125 1.53125q3.453125 0.921875 6.90625 0.921875q3.3125 0 5.484375 -0.796875q2.171875 -0.796875 3.375 -2.203125q1.21875 -1.34375 1.734375 -3.25q0.515625 -1.890625 0.515625 -4.234375l0 -3.53125q-2.9375 2.359375 -5.609375 3.515625q-2.671875 1.140625 -6.8125 1.140625q-6.90625 0 -10.96875 -4.984375q-4.046875 -4.984375 -4.046875 -14.046875q0 -4.96875 1.390625 -8.578125q1.40625 -3.609375 3.828125 -6.234375q2.234375 -2.4375 5.4375 -3.796875q3.21875 -1.375 6.390625 -1.375q3.34375 0 5.609375 0.671875q2.265625 0.671875 4.78125 2.0625l0.40625 -1.65625l6.078125 0l0 34.15625zm-6.484375 -6.21875l0 -21.015625q-2.59375 -1.171875 -4.828125 -1.671875q-2.21875 -0.5 -4.421875 -0.5q-5.34375 0 -8.421875 3.59375q-3.0625 3.59375 -3.0625 10.421875q0 6.484375 2.265625 9.828125q2.28125 3.34375 7.5625 3.34375q2.828125 0 5.671875 -1.078125q2.84375 -1.09375 5.234375 -2.921875zm51.50653 -8.0l-28.390625 0q0 3.546875 1.0625 6.1875q1.078125 2.640625 2.9375 4.328125q1.796875 1.65625 4.25 2.484375q2.46875 0.828125 5.4375 0.828125q3.9375 0 7.921875 -1.5625q3.984375 -1.578125 5.671875 -3.09375l0.34375 0l0 7.078125q-3.265625 1.375 -6.6875 2.3125q-3.421875 0.921875 -7.171875 0.921875q-9.59375 0 -14.984375 -5.1875q-5.375 -5.1875 -5.375 -14.75q0 -9.453125 5.15625 -15.0q5.15625 -5.5625 13.578125 -5.5625q7.796875 0 12.015625 4.5625q4.234375 4.546875 4.234375 12.9375l0 3.515625zm-6.3125 -4.96875q-0.03125 -5.109375 -2.578125 -7.90625q-2.53125 -2.796875 -7.703125 -2.796875q-5.203125 0 -8.296875 3.078125q-3.09375 3.0625 -3.5 7.625l22.078125 0zm40.1839 -7.90625l-0.34375 0q-1.4375 -0.34375 -2.8125 -0.5q-1.359375 -0.15625 -3.21875 -0.15625q-3.0 0 -5.796875 1.328125q-2.796875 1.328125 -5.375 3.4375l0 27.359375l-6.5 0l0 -38.53125l6.5 0l0 5.6875q3.859375 -3.109375 6.796875 -4.390625q2.953125 -1.296875 6.03125 -1.296875q1.6875 0 2.4375 0.09375q0.765625 0.078125 2.28125 0.3125l0 6.65625zm19.918701 2.765625l-8.25 0l0 -9.828125l8.25 0l0 9.828125zm0 28.703125l-8.25 0l0 -9.828125l8.25 0l0 9.828125z" fill-rule="nonzero"/></g></svg>