<?xml version="1.0" encoding="UTF-8" standalone="no"?>
<svg id="svg2" xmlns:rdf="http://www.w3.org/1999/02/22-rdf-syntax-ns#" xmlns="http://www.w3.org/2000/svg" height="1286pt" width="1250pt" version="1.1" xmlns:cc="http://creativecommons.org/ns#" xmlns:dc="http://purl.org/dc/elements/1.1/" viewBox="0 0 1250 1286">
<g>
<path id="path4" d="m881.38 0h12.29c92.86 2.11 188.63 31.11 256.63 96.73 42.6 39.64 68.2 96.81 68.8 155.09-4.5-61.75-36.8-123.45-87.1-161.8-105.1-84.18-252.02-92.2-377.88-57.89-77.42 20.69-150.83 62.61-201.4 125.59-32.6 41.61-49.79 95.62-43.78 148.43 0.21 4.09 5.99 1.48 8.75 2.1-6.21-42.21 3.37-86.1 24.72-122.84 32.81-54.3 85.68-93.97 142.55-120.44 64.03-29.22 134.98-40.25 204.94-40.98 41.01 1.29 83.54 4.72 122.1 19.2-69.43-19.03-143.04-19.02-213.64-6.82-79.88 13.54-158.69 47.36-215.13 106.86-43.08 42.44-66.58 105.44-56.04 165.64 60.08 6.79 115.17 37.21 158.98 77.96 44.52 39.83 79.62 90.04 101.91 145.41 56.55 7.86 114.24 2.26 169-13.36 20.46-4.75 31.77 14.59 38.96 30.08 25.76 48.7 74.66 83.48 129.66 89.37-30.1-29.58-49.5-69.91-50.9-112.38 4.8 42.52 23.6 86.21 58.8 112.77 3.3 1.33 6.9 1.64 10.4 2.21-54.1-35.83-73-106.87-63.5-168.32 5.3-11.33 17.6-16.48 26.1-25.06 61.7-50.42 100.4-128.51 96.8-208.86 15.3 84.67-27 169.95-92.4 222.34-5.8 5.24-12.4 9.64-17.7 15.39-8.4 56.69 8.9 123.14 60.2 154.93 8.7 9.11 21.2 13.82 33.7 10.07-17-12.9-36.6-22.59-51-38.66-30.1-31.94-36.7-78.33-34.4-120.55 65.4-50.06 118.8-123.9 120.4-208.96 4.2 41.91-7.6 88.28-28 126.96-18.4 34.43-44.9 63.5-73.2 90.11-0.7 37.98 9.7 79.35 40.5 104.23 23.6 16.17 47.6 31.68 71.5 47.4 8 5.01 14.6 12.49 17 21.7v12.74c-3.6 12.06-13.7 23.07-26.8 23.83-40.2 4.9-81.2 5.6-121.1-2.39 37.6 35.4 57.3 86.94 56.8 138.27-2.5-53.95-26.3-108.1-70.1-141-6.1-2.68-12.8-3.84-19.2-5.76 31.4 22.26 58.9 53.05 69.2 90.77-16.6-44.92-51.6-83.19-95.8-102.08-52.41-30.6-113.95-42.13-173.85-46.23 46.94-0.77 96.77 10.53 141.85 27.16-7.1-6.66-14.3-13.78-24.28-15.68-62.22-18.85-128.22-23.31-192.82-18.37-5.97-0.76-1.63 7.81-2.82 10.97 45.06-1.77 90.64-1.8 135.09 6.7-44.78-3.9-90.84-7.94-135.78-1.97-8.19 133.06-109.52 245.23-229.1 294.67-58.51 24.73-122.45 32.44-185.45 34.21 87.33 72.41 205.45 94.71 316.25 92.41 14.23-2.5 30.28 6.2 33.15 20.9 6.1 42.6-3.24 87.2-25.36 124 55.35-15.4 98.71-60.4 116.35-114.6 5.27-14.6 7.59-34.9 25.12-39.9 34.48-6.9 68.52-15.9 101.81-27.2-31.34 13.7-64.82 22-98.04 29.9-9.4 1.4-16.77 9.1-18.99 18.2-9.82 37.8-27.12 74.8-56.06 101.9-20.95 18.9-46.66 32.2-73.67 40.2-4.2 1-6.66 4.9-8.59 8.5 31.82-8.6 63.25-22.6 86.97-46 29.43-27.4 46.13-65.6 56.03-104 2.17-7.9 9.1-13.8 17.27-14.8 84.2-19.4 167.42-53.1 232.32-111.65 37.2-31.96 65.6-78.48 62.6-129.13 8.8 40.75-8.5 87.21-37 118.73-65.6 74.95-162.48 113.55-257.53 135.25-4.09 0.5-5.2 4.8-6.28 8.1-8.89 34.4-23.74 67.7-47.19 94.7-29.55 35.1-73.16 54.8-117.09 64.8-8.41 1.3-14.31 8.5-19.74 14.3 38.57-6.4 77.19-17.9 109.84-40.1 45.14-30 73.21-81.8 84.87-132.7 83.59-17.7 165.32-52.1 231.72-106.71 37.2-30.54 69.4-71.67 75.9-120.66-0.8 61.6-44.7 112.39-89.8 149.77-55.3 45.2-121.52 75.3-189.81 95.1-2.95 1.6-8.32 1-9.1 5.1-12.37 44-35.11 85.7-69.57 116.3-51.55 46.1-122.11 59.7-188.85 65.8h-17.73c-17.92-4.1-30.81-24-23.6-41.8 5.46-15.6 22.55-19.9 34.88-28.3 35.67-21.4 63.18-59.2 65-101.6-90.99-6-182.89-25.2-263.08-70.1-33.87-18.6-64.52-43.2-88.2-73.74-10.21-7.5-8.97-30.63-24.41-27.92 27.79 61.66 89.31 98.06 147.7 126.56-62.45-23.5-123.66-64.2-150.53-127.61-3.59-1.57-10.28-3.4-10.65 2.29-9.96 44.04-38.55 84.42-79.75 104.22-62.42 31.2-138.86 17.6-194.36-21.6-11.49-11.9-5.34-35.02 11.33-38.53 61.44-5.81 97.76-70.18 93.22-127.62-53.98-39.13-99.81-95.33-111.07-162.51 15.15 60.2 53.08 112.49 100.56 151.63 4.46 4.15-0.39-4.57 3.57-4.27-28.73-25.68-55.49-54.54-73.26-89.09-38.24-72.08-38.43-163.74 2.09-234.92 32.3-56.74 84.12-100.21 140.97-131.04 80.01-41.55 172.32-56.4 261.75-50.85 83.2 5.26 165.95 34.55 229.04 89.99-42.1-44.52-99.08-79.74-161.8-81.83-12.68-0.28-11.22-16.39-14.4-24.94-13.65-69.87 12.18-143.96 60.86-194.92 83.69-90.24 209.92-126.38 329.88-127.5m-371.58 313.17c1.81 9.7 11.33 1.74 0 0m20.51 6.54c0.46 2.8 1.02 5.59 1.74 8.34 112.04 24.83 202.26 120.56 236.92 228.07 60.68 13.16 124.21 11.33 184.64-2.48 2.39-0.31 10.76-6.53 6.68-0.43 20.31 42.53 51.91 81.96 95.61 101.86 38.3 18.65 81.7 23.17 123.7 23.25-5.3-5.88-14.6-12.83-23.8-12.12-51.8-0.99-106.6-15.03-144.1-52.91-20.68-19.17-35.16-44.64-48.92-68.21-60.89 15.89-124.88 18.21-186.86 7.1-3.11 1.78-6.77 1.38-4.59-2.94-7.38-27.11-20.7-52.4-35.43-76.16 15.32 19.05 26.42 41.5 36.1 63.94 1.46 3.28 5.86 2.3 8.91 2.79 0.64-4.59-13.59-11.48-3.28-8.76-16.92-43.49-44.28-82.58-76.6-116.08-45.99-47.11-104.21-86.34-170.72-95.26m-9.5 1.51c-0.85 6.65 5.56 9.17 11.24 6.83-3.78-2.23-7.06-5.39-11.24-6.83m-8.61 3.36c0.67 5.7 6.3-0.7 0 0m-117.65 26.99c-123.82 4.18-252.34 54.39-326.94 157.04-46.05 61.54-54.65 146.86-25.76 217.55 17.73 45.3 51.56 82.06 89.41 111.64 11.63 59.1-10.01 130.32-66.37 159.41 1.82 1.22 3.83 2.35 6.06 2.54 28.58-14.51 46.81-43.55 59.3-71.48-8.36 29.61-27.48 55.79-52.26 73.93 3.1 1.1 6.85 3.4 10.02 1.8 50.92-38.51 68.04-108.24 56.03-168.88-2.46-7.68-10.26-11.3-15.99-16.16-39.23-30.29-71.52-71.47-85.53-119.48-13.61-46.93-12.13-98.85 6.9-144.06 32.47-74.58 101.28-128.12 174.68-159.32 100.99-40.3 216.99-46.64 320.46-11.79 0.15-1.17 8.35 3.8 3.77 2.48-37.7-13.03-77.49-19.95-117.38-20.79-85.66-1.73-174.07 13.43-248.83 57.13-71.04 41.54-136.02 111.64-139.14 197.94-4.55 69.15 27.89 137.34 80.86 181.09 10.06 10.2 25.45 16.34 30.12 30.88 11.52 62.29-5.99 132.63-55.76 174.16 38.14 6.8 88.13-5.5 109.78-42.22 13.02-21.23 17.42-46.35 19.99-70.76 2.71-15.61 20.02-26.31 35.32-22.7 106.95 25.39 224.75 13.45 320.92-41.38-94.53 60.05-215.37 73.02-323.6 48.2-15.01-2.92-27.19 11.49-26.68 25.58-2.56 30.67-12.03 62.37-34.72 84.3-29.18 25.88-71.65 33.78-109.2 25.88-2.57 0.3-7.52 2.7-7.55 4.6 38.66 11.2 82.78 2.8 115.17-21.06 29.27-24.06 40.18-62.62 42.91-98.97 1.19-11.22 13.92-17.94 24.19-13.69 50.11 12.12 102.34 13.47 153.37 7.12 105.05-11.11 206.3-65.35 268.32-151.68 32.2-44.18 49.35-99.24 46.77-153.96 15.23 82.52-25.99 165.77-87.84 218.89-102.06 93.98-252.72 120.98-385.64 91.98-5.35-3.01-6.74 3.07-6.91 6.63-2.37 35.2-13.29 71.54-39.02 96.84-37.56 34.6-95.13 42.3-142.31 24.8-2.43-0.9-11.75 2.5-6.07 4.1 43.32 17.7 94.6 14.4 135.03-9.3 30.23-17.8 49.34-50.2 57.16-83.72 2.43-5.1-12.15-1.94-5.23-6.28 10.05-3.24 8.66-13.43 10.87-21.39 7.72 0.17 15.86 6.3 21.71-2.04 4.75-4.81 4.76 2.68 4.24 6.24 145.01 25.08 305.67-23.73 400.78-139.25 37.17-42.46 59.95-98.72 63.01-153.92 6.52 111.29-71.51 206.66-160.99 262.96 88.94-49.11 160.77-138.38 170.11-241.93 2.24-9.55-3.03-27.05 11.48-27.61 69.43-5.64 140.41-1.39 207.47 18.45-11.68-15.31-24.07-30.56-33.14-47.8-0.62-2.79-3.12-3.49-5.48-2.76-59.48 11.35-121.02 8.99-180.1-3.61-11.25-1.87-15.39-13.86-18.41-22.54 2.61 14.36 6.78 30.01 4.28 43.79-3.05-58.03-30.61-113.73-73.42-152.76-74.73-69.14-179.54-100.72-280.22-94.66m564.11 174.93c-54.31 15.24-111.44 22.08-167.62 14.52 0.55 2.36 1.33 4.66 1.98 7.01-4.95-6.15-14.99-11.49-8.59-0.29 58.63 7.3 118.48 0.88 175.19-15.16 8.04-2.04 14.49 4.6 17.65 11.2 15.16 28.91 35.33 55.71 61.73 75.26 31.1 21.73 69.3 32.67 107 33.67-3.8-3.28-8-6.34-13.2-6.52-32.7-3.4-65.3-13.35-92-32.99-25.9-19.52-44.8-46.72-59.77-75.15-3.9-8.04-13.41-13.59-22.37-11.55m-184.86 15.56c2.52 8.99 9.53 2.5 0 0m3.86 84.3c-9.14 15.85 15.56-3.89 0 0m8.95 2.7c-2.86 2.23-5.34 4.91-7.83 7.53 4.97 2.6 11.54-1.6 7.83-7.53m-1.15 11.47c-4.15 0.65-10.71-1.1-9.98 5.06-8.04 108.37-81.19 202.71-173.53 255.36-73.26 41.73-160.13 55.03-243.43 48.66-0.1 3.75 4.81 6.96 7.45 9.5 57.92 1.41 116.66-3.87 171.88-22.25 92.95-31.19 174.17-98.88 218.15-186.87 16.08-34.02 28.22-73.45 29.46-109.46m362.54 7.9c0.1 2.01 10 8.17 14.8 5.23-4.2-3.37-9-7.58-14.8-5.23m31.6-0.34c0.6 8.82 17.3 4.25 23.9 4.58-6.1-7.4-15.8-4.48-23.9-4.58m35.4 13.04c3.4 3.19 4.7 8.72 0.9 12.5-10.1-0.56 3.1 4.97 6.9 0.27 6.3-4.92-2.6-12.12-7.8-12.77m-1.8 2.74c-5.9 9.22 2.9 8.42 0 0m-9.4 1.55c1.1 8.16 12.9-1.46 0 0m-28.9 1.87c3.3 3.32 12.9 12.5 21 9.25-6.2-4.56-12.5-11.68-21-9.25m-1068.1 177.76c2.71 10.24 9.68 8.09 0 0m-0.97 3.33c1.32 9.39 7.18 4.55 0 0m484.5 34.97c-6.69 1.36 1.47 4.28 0 0m-258.44 64.47c0.29 7.34 10.16 14.06 17.98 9.87-3.05-7.65-10.13-10.69-17.98-9.87m15.09 20.37c22.42 29.98 60.19 52.51 95.23 69.61 79.28 37.1 167.78 54.3 255.01 52.3 2.51 42.3-12.56 95-48.83 126-8.46 7.1 5.04 1.9 8.61 1.2 34.38-33.2 50.19-83.8 44.68-130.9-58.52-2.4-119.82-6.3-175.47-23.6 52.77 11.6 107.02 15.5 160.97 14.2 8.47-0.1 22.53-2.2 23.78 9.5 5.44 44.2-5.25 90.4-32.06 126.3 4.06-1 9.24-1.3 11.08-5.9 23.96-35.1 32.78-79.4 27.55-121.3-1.49-10.3-12.43-17.1-22.45-15.7-69.36 1.8-139.64-5.2-205.71-27.2-46.84-16.3-93.49-37.9-128.79-73.6-4.15-2.24-9.15-1.14-13.6-0.91m-292.87 34.41c-2.79 0.7-6.05 1.2-8.11 3.3 5.33 6.6 22.19-2.3 8.11-3.3m13.49 5.8c-13.98 4.2 8.23 10.6 9.08 1.8-2.91-0.9-6.02-2.5-9.08-1.8m-36.24 0.7c-5.42 7.8 5.77 2.3 0 0m3.62 1.2c-0.77 7.7 9.96-0.7 0 0m13.39 7.1c-14.33 1.2 6.86 10.2 9.32 2.9-2.8-1.6-6.01-3.4-9.32-2.9m630.63 203c-7.04-0.6-11.63 4.1-14.85 9.6 5.87-0.6 15.34-5.1 14.85-9.6m-34.52 6.9c-7.15 1-14.62 1.8-19.85 7.5 1.73 4.4 26.54-4.3 19.85-7.5m7.93 18c-9.62-0.4-15.28 8.1-23.12 12 7.26 3.9 26.92-8.7 23.12-12m-49.68 3.2c-13.81 0.1-1.78 19.4 2.94 9.1-6.41-1-0.65-7.6-2.94-9.1m4.91 2.5c-2.67 9.3 13.94-4.3 0 0m-2.4 1.6c-2.61 4.3 3.81 1.8 0 0z"/>
<path id="path6" d="m728.49 10.36c1.06-0.33 4.94-1.02 2.36 0.56-56.22 19.24-111.08 45.34-155.8 85.14-41.87 34.21-73.36 82.16-87.2 133.76 8.08-44.17 31.33-84.58 61.9-117.07 47.76-50.7 111.01-86.49 178.74-102.39z"/>
<path id="path8" d="m953.59 24.28c5.29-2.65 3.17 3.53 0 0z"/>
<path id="path10" d="m960.59 25.28c5.29-2.65 3.17 3.53 0 0z"/>
<path id="path12" d="m965.82 25.89c58.38 8.86 114.88 32.26 161.08 69.18 35.8 29.02 64.8 68.59 75 114.04-11.9-39.87-35-76.22-66.5-103.49-47.6-42.07-108.2-67.07-169.58-79.73z"/>
<path id="path14" d="m1013.6 43.29c6.9-1.38 3.6 4.76 0 0z"/>
<path id="path16" d="m487.21 231.62c3.81 1.81-2.61 4.26 0 0z"/>
<path id="path18" d="m253.45 347.32c8.94-1.04-6.13 4.05-8.46 4.7-103.93 35.56-204.9 110.34-237.06 218.94 12.18-57.11 48.33-106.42 91.74-144.29 44-38.1 97.13-65.84 153.78-79.35z"/>
<path id="path20" d="m482.62 363.21c4.26-2.6 1.81 3.81 0 0z"/>
<path id="path22" d="m487.62 364.21c4.26-2.6 1.81 3.81 0 0z"/>
<path id="path24" d="m491.88 364.86c43.73 7.39 86.22 23.13 124.19 46.07 54.45 31.85 101.52 82.4 115.86 145.18-30.5-106.74-137.95-168.8-240.05-191.25z"/>
<path id="path26" d="m1074 507.02c2.4 3.89 0.8 12.22 1 17.96-2.4-3.92-0.8-12.23-1-17.96z"/>
<path id="path28" d="m852.98 629.94c3.56 0.95 11.09-1.94 13.04 1.12-3.63-1-11.09 1.94-13.04-1.12z"/>
<path id="path30" d="m928.62 643.21c4.25-2.61 1.8 3.81 0 0z"/>
<path id="path32" d="m106.21 856.62c3.81 1.81-2.6 4.25 0 0z"/>
<path id="path34" d="m263.3 902.37c2.23 11.13-15.2 2.22 0 0z"/>
<path id="path36" d="m946.26 1023c4.69 1.8-5.55 2.8 0 0z"/>
<path id="path38" d="m445.46 1069.3c5.25-1.4 1.17 4.7 0 0z"/>
</g>
</svg>
