<svg version="1.1" viewBox="0.0 0.0 960.0 720.0" fill="none" stroke="none" stroke-linecap="square" stroke-miterlimit="10" xmlns:xlink="http://www.w3.org/1999/xlink" xmlns="http://www.w3.org/2000/svg"><clipPath id="p.0"><path d="m0 0l960.0 0l0 720.0l-960.0 0l0 -720.0z" clip-rule="nonzero"/></clipPath><g clip-path="url(#p.0)"><path fill="#000000" fill-opacity="0.0" d="m0 0l960.0 0l0 720.0l-960.0 0z" fill-rule="evenodd"/><path fill="#6aa84f" d="m181.02362 170.20473l597.95276 0l0 379.59058l-597.95276 0z" fill-rule="evenodd"/><path stroke="#000000" stroke-width="2.0" stroke-linejoin="round" stroke-linecap="butt" d="m181.02362 170.20473l597.95276 0l0 379.59058l-597.95276 0z" fill-rule="evenodd"/><path fill="#ffffff" d="m319.3071 360.0l321.38583 0l0 105.03937l-321.38583 0z" fill-rule="evenodd"/><path fill="#000000" d="m376.07492 383.1525l-1.484375 19.984375l-4.5625 0l-1.484375 -19.984375l7.53125 0zm-13.328125 0l-1.484375 19.984375l-4.546875 0l-1.484375 -19.984375l7.515625 0zm57.72699 53.6875l-6.484375 0l0 -21.9375q0 -2.65625 -0.3125 -4.984375q-0.3125 -2.328125 -1.140625 -3.640625q-0.859375 -1.453125 -2.484375 -2.15625q-1.625 -0.71875 -4.203125 -0.71875q-2.65625 0 -5.5625 1.3125q-2.890625 1.3125 -5.546875 3.359375l0 28.765625l-6.5 0l0 -53.6875l6.5 0l0 19.421875q3.03125 -2.515625 6.265625 -3.921875q3.25 -1.421875 6.671875 -1.421875q6.234375 0 9.515625 3.765625q3.28125 3.765625 3.28125 10.828125l0 25.015625zm44.74341 -18.59375l-28.390625 0q0 3.546875 1.0625 6.1875q1.078125 2.640625 2.9375 4.328125q1.796875 1.65625 4.25 2.484375q2.46875 0.828125 5.4375 0.828125q3.9375 0 7.921875 -1.5625q3.984375 -1.578125 5.671875 -3.09375l0.34375 0l0 7.078125q-3.265625 1.375 -6.6875 2.3125q-3.421875 0.921875 -7.171875 0.921875q-9.59375 0 -14.984375 -5.1875q-5.375 -5.1875 -5.375 -14.75q0 -9.453125 5.15625 -15.0q5.15625 -5.5625 13.578125 -5.5625q7.796875 0 12.015625 4.5625q4.234375 4.546875 4.234375 12.9375l0 3.515625zm-6.3125 -4.96875q-0.03125 -5.109375 -2.578125 -7.90625q-2.53125 -2.796875 -7.703125 -2.796875q-5.203125 0 -8.296875 3.078125q-3.09375 3.0625 -3.5 7.625l22.078125 0zm22.699524 23.5625l-6.484375 0l0 -53.6875l6.484375 0l0 53.6875zm19.389069 0l-6.484375 0l0 -53.6875l6.484375 0l0 53.6875zm45.685974 -19.25q0 9.421875 -4.84375 14.875q-4.828125 5.4375 -12.9375 5.4375q-8.171875 0 -12.984375 -5.4375q-4.8125305 -5.453125 -4.8125305 -14.875q0 -9.421875 4.8125305 -14.890625q4.8125 -5.46875 12.984375 -5.46875q8.109375 0 12.9375 5.46875q4.84375 5.46875 4.84375 14.890625zm-6.703125 0q0 -7.484375 -2.9375 -11.125q-2.921875 -3.640625 -8.140625 -3.640625q-5.265625 0 -8.1875 3.640625q-2.921875 3.640625 -2.921875 11.125q0 7.25 2.9375 11.0q2.9375 3.734375 8.171875 3.734375q5.1875 0 8.125 -3.703125q2.953125 -3.71875 2.953125 -11.03125zm28.117981 -32.125l-0.890625 37.234375l-5.875 0l-0.953125 -37.234375l7.71875 0zm-0.34375 51.375l-7.03125 0l0 -7.28125l7.03125 0l0 7.28125zm37.02588 -53.6875l-1.484375 19.984375l-4.5625 0l-1.484375 -19.984375l7.53125 0zm-13.328125 0l-1.484375 19.984375l-4.546875 0l-1.484375 -19.984375l7.515625 0z" fill-rule="nonzero"/><path fill="#ffffff" d="m319.3071 254.96063l321.38583 0l0 105.03937l-321.38583 0z" fill-rule="evenodd"/><path fill="#000000" d="m396.39883 320.69125q0 5.28125 -4.359375 8.671875q-4.359375 3.375 -11.921875 3.375q-4.28125 0 -7.859375 -1.015625q-3.5625 -1.03125 -5.96875 -2.234375l0 -7.28125l0.34375 0q3.0625 2.3125 6.828125 3.6875q3.765625 1.359375 7.21875 1.359375q4.265625 0 6.6875 -1.375q2.421875 -1.390625 2.421875 -4.359375q0 -2.28125 -1.3125 -3.453125q-1.3125 -1.171875 -5.046875 -2.0q-1.375 -0.3125 -3.609375 -0.71875q-2.21875 -0.421875 -4.046875 -0.90625q-5.0625 -1.34375 -7.1875 -3.9375q-2.125 -2.609375 -2.125 -6.40625q0 -2.375 0.984375 -4.484375q0.984375 -2.109375 2.984375 -3.765625q1.921875 -1.625 4.90625 -2.5625q2.984375 -0.953125 6.6875 -0.953125q3.453125 0 6.984375 0.84375q3.53125 0.84375 5.875 2.0625l0 6.921875l-0.34375 0q-2.484375 -1.828125 -6.046875 -3.078125q-3.546875 -1.265625 -6.953125 -1.265625q-3.5625 0 -6.015625 1.375q-2.4375 1.359375 -2.4375 4.046875q0 2.375 1.484375 3.578125q1.453125 1.21875 4.6875 1.96875q1.796875 0.421875 4.015625 0.84375q2.234375 0.40625 3.71875 0.75q4.515625 1.03125 6.96875 3.546875q2.4375 2.5625 2.4375 6.765625zm29.29602 10.765625q-1.828125 0.484375 -3.984375 0.796875q-2.15625 0.3125 -3.84375 0.3125q-5.90625 0 -8.984375 -3.171875q-3.0625 -3.1875 -3.0625 -10.1875l0 -20.484375l-4.375 0l0 -5.453125l4.375 0l0 -11.078125l6.484375 0l0 11.078125l13.390625 0l0 5.453125l-13.390625 0l0 17.546875q0 3.046875 0.140625 4.75q0.140625 1.703125 0.96875 3.1875q0.765625 1.390625 2.09375 2.03125q1.328125 0.625 4.046875 0.625q1.59375 0 3.3125 -0.453125q1.71875 -0.46875 2.484375 -0.78125l0.34375 0l0 5.828125zm31.872833 -31.125l-0.34375 0q-1.4375 -0.34375 -2.8125 -0.5q-1.359375 -0.15625 -3.21875 -0.15625q-3.0 0 -5.796875 1.328125q-2.796875 1.328125 -5.375 3.4375l0 27.359375l-6.5 0l0 -38.53125l6.5 0l0 5.6875q3.859375 -3.109375 6.796875 -4.390625q2.953125 -1.296875 6.03125 -1.296875q1.6875 0 2.4375 0.09375q0.765625 0.078125 2.28125 0.3125l0 6.65625zm13.074982 -13.515625l-7.3125 0l0 -6.734375l7.3125 0l0 6.734375zm-0.40625 44.984375l-6.484375 0l0 -38.53125l6.484375 0l0 38.53125zm45.060944 0l-6.484375 0l0 -21.9375q0 -2.65625 -0.3125 -4.984375q-0.3125 -2.328125 -1.140625 -3.640625q-0.859375 -1.453125 -2.484375 -2.15625q-1.625 -0.71875 -4.203125 -0.71875q-2.65625 0 -5.5625 1.3125q-2.890625 1.3125 -5.546875 3.359375l0 28.765625l-6.5 0l0 -38.53125l6.5 0l0 4.265625q3.03125 -2.515625 6.265625 -3.921875q3.25 -1.421875 6.671875 -1.421875q6.234375 0 9.515625 3.765625q3.28125 3.765625 3.28125 10.828125l0 25.015625zm43.74341 -4.375q0 9.796875 -4.453125 14.375q-4.453125 4.59375 -13.6875 4.59375q-3.078125 0 -6.0 -0.4375q-2.90625 -0.421875 -5.734375 -1.21875l0 -6.625l0.34375 0q1.578125 0.625 5.03125 1.53125q3.453125 0.921875 6.90625 0.921875q3.3125 0 5.484375 -0.796875q2.171875 -0.796875 3.375 -2.203125q1.21875 -1.34375 1.734375 -3.25q0.515625 -1.890625 0.515625 -4.234375l0 -3.53125q-2.9375 2.359375 -5.609375 3.515625q-2.671875 1.140625 -6.8125 1.140625q-6.90625 0 -10.96875 -4.984375q-4.046875 -4.984375 -4.046875 -14.046875q0 -4.96875 1.390625 -8.578125q1.40625 -3.609375 3.828125 -6.234375q2.234375 -2.4375 5.4375 -3.796875q3.21875 -1.375 6.390625 -1.375q3.34375 0 5.609375 0.671875q2.265625 0.671875 4.78125 2.0625l0.40625 -1.65625l6.078125 0l0 34.15625zm-6.484375 -6.21875l0 -21.015625q-2.59375 -1.171875 -4.828125 -1.671875q-2.21875 -0.5 -4.421875 -0.5q-5.34375 0 -8.421875 3.59375q-3.0625 3.59375 -3.0625 10.421875q0 6.484375 2.265625 9.828125q2.28125 3.34375 7.5625 3.34375q2.828125 0 5.671875 -1.078125q2.84375 -1.09375 5.234375 -2.921875zm33.053406 -18.109375l-8.25 0l0 -9.828125l8.25 0l0 9.828125zm0 28.703125l-8.25 0l0 -9.828125l8.25 0l0 9.828125z" fill-rule="nonzero"/></g></svg>