<svg version="1.1" viewBox="0.0 0.0 960.0 720.0" fill="none" stroke="none" stroke-linecap="square" stroke-miterlimit="10" xmlns:xlink="http://www.w3.org/1999/xlink" xmlns="http://www.w3.org/2000/svg"><clipPath id="p.0"><path d="m0 0l960.0 0l0 720.0l-960.0 0l0 -720.0z" clip-rule="nonzero"/></clipPath><g clip-path="url(#p.0)"><path fill="#000000" fill-opacity="0.0" d="m0 0l960.0 0l0 720.0l-960.0 0z" fill-rule="evenodd"/><path fill="#efefef" d="m60.188976 93.49606l839.6221 0l0 533.00793l-839.6221 0z" fill-rule="evenodd"/><path stroke="#000000" stroke-width="2.0" stroke-linejoin="round" stroke-linecap="butt" d="m60.188976 93.49606l839.6221 0l0 533.00793l-839.6221 0z" fill-rule="evenodd"/><path fill="#ffffff" d="m65.55905 115.09449l828.88184 0l0 53.322838l-828.88184 0z" fill-rule="evenodd"/><path fill="#000000" d="m137.69824 130.61511l-5.28125 20.359375l-3.046875 0l-4.28125 -16.90625l-4.1875 16.90625l-2.984375 0l-5.375 -20.359375l2.765625 0l4.28125 16.921875l4.21875 -16.921875l2.734375 0l4.265625 17.09375l4.25 -17.09375l2.640625 0zm16.560547 20.359375l-2.5625 0l0 -8.703125q0 -1.046875 -0.125 -1.96875q-0.125 -0.921875 -0.453125 -1.4375q-0.34375 -0.578125 -0.984375 -0.859375q-0.640625 -0.28125 -1.671875 -0.28125q-1.046875 0 -2.203125 0.53125q-1.140625 0.515625 -2.203125 1.3125l0 11.40625l-2.5625 0l0 -21.28125l2.5625 0l0 7.703125q1.203125 -1.0 2.484375 -1.5625q1.296875 -0.5625 2.65625 -0.5625q2.46875 0 3.765625 1.5q1.296875 1.484375 1.296875 4.296875l0 9.90625zm16.8125 0l-2.546875 0l0 -1.625q-0.34375 0.234375 -0.921875 0.65625q-0.578125 0.40625 -1.125 0.65625q-0.65625 0.3125 -1.484375 0.515625q-0.828125 0.21875 -1.953125 0.21875q-2.0625 0 -3.5 -1.359375q-1.4375 -1.375 -1.4375 -3.5q0 -1.734375 0.734375 -2.796875q0.75 -1.078125 2.140625 -1.6875q1.390625 -0.625 3.34375 -0.84375q1.953125 -0.21875 4.203125 -0.328125l0 -0.390625q0 -0.875 -0.3125 -1.453125q-0.3125 -0.578125 -0.875 -0.90625q-0.546875 -0.3125 -1.3125 -0.421875q-0.765625 -0.109375 -1.609375 -0.109375q-1.0 0 -2.25 0.265625q-1.25 0.265625 -2.578125 0.78125l-0.125 0l0 -2.609375q0.75 -0.21875 2.171875 -0.453125q1.421875 -0.25 2.796875 -0.25q1.609375 0 2.8125 0.265625q1.203125 0.265625 2.078125 0.90625q0.859375 0.625 1.296875 1.625q0.453125 1.0 0.453125 2.484375l0 10.359375zm-2.546875 -3.765625l0 -4.25q-1.171875 0.078125 -2.765625 0.21875q-1.59375 0.125 -2.53125 0.390625q-1.109375 0.3125 -1.796875 0.984375q-0.671875 0.65625 -0.671875 1.8125q0 1.3125 0.78125 1.984375q0.796875 0.65625 2.421875 0.65625q1.359375 0 2.484375 -0.515625q1.125 -0.53125 2.078125 -1.28125zm15.425781 3.625q-0.71875 0.203125 -1.578125 0.3125q-0.84375 0.125 -1.515625 0.125q-2.34375 0 -3.5625 -1.25q-1.21875 -1.265625 -1.21875 -4.03125l0 -8.125l-1.734375 0l0 -2.15625l1.734375 0l0 -4.390625l2.578125 0l0 4.390625l5.296875 0l0 2.15625l-5.296875 0l0 6.953125q0 1.203125 0.046875 1.890625q0.0625 0.671875 0.390625 1.25q0.296875 0.546875 0.828125 0.8125q0.53125 0.25 1.609375 0.25q0.625 0 1.296875 -0.1875q0.6875 -0.1875 1.0 -0.3125l0.125 0l0 2.3125zm25.345703 0.140625l-2.578125 0l0 -1.59375q-1.109375 0.953125 -2.3125 1.484375q-1.203125 0.53125 -2.609375 0.53125q-2.734375 0 -4.34375 -2.09375q-1.59375 -2.109375 -1.59375 -5.84375q0 -1.953125 0.546875 -3.46875q0.546875 -1.515625 1.5 -2.578125q0.921875 -1.046875 2.15625 -1.59375q1.25 -0.546875 2.578125 -0.546875q1.203125 0 2.125 0.265625q0.9375 0.25 1.953125 0.78125l0 -6.625l2.578125 0l0 21.28125zm-2.578125 -3.765625l0 -8.765625q-1.03125 -0.453125 -1.859375 -0.625q-0.8125 -0.1875 -1.78125 -0.1875q-2.171875 0 -3.375 1.5q-1.203125 1.5 -1.203125 4.265625q0 2.71875 0.921875 4.140625q0.9375 1.40625 3.0 1.40625q1.09375 0 2.203125 -0.484375q1.125 -0.484375 2.09375 -1.25zm20.648438 -3.859375q0 3.734375 -1.921875 5.890625q-1.90625 2.15625 -5.125 2.15625q-3.234375 0 -5.140625 -2.15625q-1.90625 -2.15625 -1.90625 -5.890625q0 -3.734375 1.90625 -5.90625q1.90625 -2.171875 5.140625 -2.171875q3.21875 0 5.125 2.171875q1.921875 2.171875 1.921875 5.90625zm-2.65625 0q0 -2.96875 -1.171875 -4.40625q-1.15625 -1.453125 -3.21875 -1.453125q-2.09375 0 -3.25 1.453125q-1.140625 1.4375 -1.140625 4.40625q0 2.859375 1.15625 4.34375q1.15625 1.484375 3.234375 1.484375q2.0625 0 3.21875 -1.46875q1.171875 -1.46875 1.171875 -4.359375zm29.68164 -7.640625l-8.90625 20.90625l-2.75 0l2.84375 -6.375l-6.09375 -14.53125l2.796875 0l4.6875 11.3125l4.734375 -11.3125l2.6875 0zm16.382812 7.640625q0 3.734375 -1.921875 5.890625q-1.90625 2.15625 -5.125 2.15625q-3.234375 0 -5.140625 -2.15625q-1.90625 -2.15625 -1.90625 -5.890625q0 -3.734375 1.90625 -5.90625q1.90625 -2.171875 5.140625 -2.171875q3.21875 0 5.125 2.171875q1.921875 2.171875 1.921875 5.90625zm-2.65625 0q0 -2.96875 -1.171875 -4.40625q-1.15625 -1.453125 -3.21875 -1.453125q-2.09375 0 -3.25 1.453125q-1.140625 1.4375 -1.140625 4.40625q0 2.859375 1.15625 4.34375q1.15625 1.484375 3.234375 1.484375q2.0625 0 3.21875 -1.46875q1.171875 -1.46875 1.171875 -4.359375zm19.291016 7.625l-2.5625 0l0 -1.703125q-1.296875 1.03125 -2.5 1.578125q-1.1875 0.546875 -2.625 0.546875q-2.40625 0 -3.75 -1.46875q-1.328125 -1.46875 -1.328125 -4.3125l0 -9.90625l2.5625 0l0 8.6875q0 1.15625 0.109375 1.984375q0.109375 0.828125 0.46875 1.421875q0.375 0.59375 0.953125 0.875q0.59375 0.265625 1.71875 0.265625q1.0 0 2.171875 -0.515625q1.1875 -0.515625 2.21875 -1.328125l0 -11.390625l2.5625 0l0 15.265625zm25.8125 -4.40625q0 2.09375 -1.734375 3.4375q-1.71875 1.34375 -4.71875 1.34375q-1.6875 0 -3.109375 -0.40625q-1.40625 -0.40625 -2.375 -0.890625l0 -2.875l0.140625 0q1.21875 0.90625 2.703125 1.453125q1.5 0.53125 2.859375 0.53125q1.703125 0 2.65625 -0.546875q0.953125 -0.546875 0.953125 -1.71875q0 -0.90625 -0.515625 -1.359375q-0.515625 -0.46875 -2.0 -0.796875q-0.546875 -0.125 -1.4375 -0.28125q-0.875 -0.171875 -1.59375 -0.359375q-2.015625 -0.53125 -2.859375 -1.5625q-0.828125 -1.03125 -0.828125 -2.546875q0 -0.9375 0.390625 -1.765625q0.390625 -0.84375 1.171875 -1.5q0.765625 -0.640625 1.953125 -1.015625q1.1875 -0.375 2.640625 -0.375q1.375 0 2.765625 0.34375q1.40625 0.328125 2.34375 0.796875l0 2.75l-0.140625 0q-0.984375 -0.71875 -2.390625 -1.21875q-1.40625 -0.5 -2.765625 -0.5q-1.40625 0 -2.375 0.546875q-0.96875 0.53125 -0.96875 1.59375q0 0.953125 0.578125 1.421875q0.578125 0.484375 1.859375 0.78125q0.71875 0.171875 1.59375 0.34375q0.890625 0.15625 1.46875 0.296875q1.796875 0.40625 2.765625 1.40625q0.96875 1.0 0.96875 2.671875zm15.541016 4.40625l-2.546875 0l0 -1.625q-0.34375 0.234375 -0.921875 0.65625q-0.578125 0.40625 -1.125 0.65625q-0.65625 0.3125 -1.484375 0.515625q-0.828125 0.21875 -1.953125 0.21875q-2.0625 0 -3.5 -1.359375q-1.4375 -1.375 -1.4375 -3.5q0 -1.734375 0.734375 -2.796875q0.75 -1.078125 2.140625 -1.6875q1.390625 -0.625 3.34375 -0.84375q1.953125 -0.21875 4.203125 -0.328125l0 -0.390625q0 -0.875 -0.3125 -1.453125q-0.3125 -0.578125 -0.875 -0.90625q-0.546875 -0.3125 -1.3125 -0.421875q-0.765625 -0.109375 -1.609375 -0.109375q-1.0 0 -2.25 0.265625q-1.25 0.265625 -2.578125 0.78125l-0.125 0l0 -2.609375q0.75 -0.21875 2.171875 -0.453125q1.421875 -0.25 2.796875 -0.25q1.609375 0 2.8125 0.265625q1.203125 0.265625 2.078125 0.90625q0.859375 0.625 1.296875 1.625q0.453125 1.0 0.453125 2.484375l0 10.359375zm-2.546875 -3.765625l0 -4.25q-1.171875 0.078125 -2.765625 0.21875q-1.59375 0.125 -2.53125 0.390625q-1.109375 0.3125 -1.796875 0.984375q-0.671875 0.65625 -0.671875 1.8125q0 1.3125 0.78125 1.984375q0.796875 0.65625 2.421875 0.65625q1.359375 0 2.484375 -0.515625q1.125 -0.53125 2.078125 -1.28125zm20.707031 -11.5l-8.90625 20.90625l-2.75 0l2.84375 -6.375l-6.09375 -14.53125l2.796875 0l4.6875 11.3125l4.734375 -11.3125l2.6875 0zm32.414062 0l-3.96875 15.265625l-2.390625 0l-3.921875 -11.765625l-3.890625 11.765625l-2.359375 0l-4.03125 -15.265625l2.6875 0l2.796875 11.8125l3.8125 -11.8125l2.125 0l3.90625 11.8125l2.65625 -11.8125l2.578125 0zm16.476562 15.265625l-2.5625 0l0 -8.703125q0 -1.046875 -0.125 -1.96875q-0.125 -0.921875 -0.453125 -1.4375q-0.34375 -0.578125 -0.984375 -0.859375q-0.640625 -0.28125 -1.671875 -0.28125q-1.046875 0 -2.203125 0.53125q-1.140625 0.515625 -2.203125 1.3125l0 11.40625l-2.5625 0l0 -21.28125l2.5625 0l0 7.703125q1.203125 -1.0 2.484375 -1.5625q1.296875 -0.5625 2.65625 -0.5625q2.46875 0 3.765625 1.5q1.296875 1.484375 1.296875 4.296875l0 9.90625zm17.734375 -7.375l-11.25 0q0 1.40625 0.421875 2.453125q0.421875 1.046875 1.15625 1.71875q0.71875 0.65625 1.6875 0.984375q0.984375 0.328125 2.15625 0.328125q1.5625 0 3.140625 -0.609375q1.578125 -0.625 2.25 -1.234375l0.140625 0l0 2.796875q-1.296875 0.546875 -2.65625 0.921875q-1.359375 0.375 -2.84375 0.375q-3.796875 0 -5.9375 -2.0625q-2.125 -2.0625 -2.125 -5.84375q0 -3.75 2.03125 -5.953125q2.046875 -2.203125 5.390625 -2.203125q3.09375 0 4.765625 1.8125q1.671875 1.796875 1.671875 5.125l0 1.390625zm-2.5 -1.96875q-0.015625 -2.015625 -1.03125 -3.125q-1.0 -1.109375 -3.046875 -1.109375q-2.0625 0 -3.296875 1.21875q-1.21875 1.21875 -1.375 3.015625l8.75 0zm19.164062 9.34375l-2.5625 0l0 -8.703125q0 -1.046875 -0.125 -1.96875q-0.125 -0.921875 -0.453125 -1.4375q-0.34375 -0.578125 -0.984375 -0.859375q-0.640625 -0.28125 -1.671875 -0.28125q-1.046875 0 -2.203125 0.53125q-1.140625 0.515625 -2.203125 1.3125l0 11.40625l-2.5625 0l0 -15.265625l2.5625 0l0 1.6875q1.203125 -1.0 2.484375 -1.5625q1.296875 -0.5625 2.65625 -0.5625q2.46875 0 3.765625 1.5q1.296875 1.484375 1.296875 4.296875l0 9.90625zm28.0 -15.265625l-8.90625 20.90625l-2.75 0l2.84375 -6.375l-6.09375 -14.53125l2.796875 0l4.6875 11.3125l4.734375 -11.3125l2.6875 0zm16.382812 7.640625q0 3.734375 -1.921875 5.890625q-1.90625 2.15625 -5.125 2.15625q-3.234375 0 -5.140625 -2.15625q-1.90625 -2.15625 -1.90625 -5.890625q0 -3.734375 1.90625 -5.90625q1.90625 -2.171875 5.140625 -2.171875q3.21875 0 5.125 2.171875q1.921875 2.171875 1.921875 5.90625zm-2.65625 0q0 -2.96875 -1.171875 -4.40625q-1.15625 -1.453125 -3.21875 -1.453125q-2.09375 0 -3.25 1.453125q-1.140625 1.4375 -1.140625 4.40625q0 2.859375 1.15625 4.34375q1.15625 1.484375 3.234375 1.484375q2.0625 0 3.21875 -1.46875q1.171875 -1.46875 1.171875 -4.359375zm19.291016 7.625l-2.5625 0l0 -1.703125q-1.296875 1.03125 -2.5 1.578125q-1.1875 0.546875 -2.625 0.546875q-2.40625 0 -3.75 -1.46875q-1.328125 -1.46875 -1.328125 -4.3125l0 -9.90625l2.5625 0l0 8.6875q0 1.15625 0.109375 1.984375q0.109375 0.828125 0.46875 1.421875q0.375 0.59375 0.953125 0.875q0.59375 0.265625 1.71875 0.265625q1.0 0 2.171875 -0.515625q1.1875 -0.515625 2.21875 -1.328125l0 -11.390625l2.5625 0l0 15.265625zm25.8125 -4.40625q0 2.09375 -1.734375 3.4375q-1.71875 1.34375 -4.71875 1.34375q-1.6875 0 -3.109375 -0.40625q-1.40625 -0.40625 -2.375 -0.890625l0 -2.875l0.140625 0q1.21875 0.90625 2.703125 1.453125q1.5 0.53125 2.859375 0.53125q1.703125 0 2.65625 -0.546875q0.953125 -0.546875 0.953125 -1.71875q0 -0.90625 -0.515625 -1.359375q-0.515625 -0.46875 -2.0 -0.796875q-0.546875 -0.125 -1.4375 -0.28125q-0.875 -0.171875 -1.59375 -0.359375q-2.015625 -0.53125 -2.859375 -1.5625q-0.828125 -1.03125 -0.828125 -2.546875q0 -0.9375 0.390625 -1.765625q0.390625 -0.84375 1.171875 -1.5q0.765625 -0.640625 1.953125 -1.015625q1.1875 -0.375 2.640625 -0.375q1.375 0 2.765625 0.34375q1.40625 0.328125 2.34375 0.796875l0 2.75l-0.140625 0q-0.984375 -0.71875 -2.390625 -1.21875q-1.40625 -0.5 -2.765625 -0.5q-1.40625 0 -2.375 0.546875q-0.96875 0.53125 -0.96875 1.59375q0 0.953125 0.578125 1.421875q0.578125 0.484375 1.859375 0.78125q0.71875 0.171875 1.59375 0.34375q0.890625 0.15625 1.46875 0.296875q1.796875 0.40625 2.765625 1.40625q0.96875 1.0 0.96875 2.671875zm16.46289 -2.96875l-11.25 0q0 1.40625 0.421875 2.453125q0.421875 1.046875 1.15625 1.71875q0.71875 0.65625 1.6875 0.984375q0.984375 0.328125 2.15625 0.328125q1.5625 0 3.140625 -0.609375q1.578125 -0.625 2.25 -1.234375l0.140625 0l0 2.796875q-1.296875 0.546875 -2.65625 0.921875q-1.359375 0.375 -2.84375 0.375q-3.796875 0 -5.9375 -2.0625q-2.125 -2.0625 -2.125 -5.84375q0 -3.75 2.03125 -5.953125q2.046875 -2.203125 5.390625 -2.203125q3.09375 0 4.765625 1.8125q1.671875 1.796875 1.671875 5.125l0 1.390625zm-2.5 -1.96875q-0.015625 -2.015625 -1.03125 -3.125q-1.0 -1.109375 -3.046875 -1.109375q-2.0625 0 -3.296875 1.21875q-1.21875 1.21875 -1.375 3.015625l8.75 0zm19.179688 1.96875l-11.25 0q0 1.40625 0.421875 2.453125q0.421875 1.046875 1.15625 1.71875q0.71875 0.65625 1.6875 0.984375q0.984375 0.328125 2.15625 0.328125q1.5625 0 3.140625 -0.609375q1.578125 -0.625 2.25 -1.234375l0.140625 0l0 2.796875q-1.296875 0.546875 -2.65625 0.921875q-1.359375 0.375 -2.84375 0.375q-3.796875 0 -5.9375 -2.0625q-2.125 -2.0625 -2.125 -5.84375q0 -3.75 2.03125 -5.953125q2.046875 -2.203125 5.390625 -2.203125q3.09375 0 4.765625 1.8125q1.671875 1.796875 1.671875 5.125l0 1.390625zm-2.5 -1.96875q-0.015625 -2.015625 -1.03125 -3.125q-1.0 -1.109375 -3.046875 -1.109375q-2.0625 0 -3.296875 1.21875q-1.21875 1.21875 -1.375 3.015625l8.75 0zm27.148438 4.9375q0 2.09375 -1.734375 3.4375q-1.71875 1.34375 -4.71875 1.34375q-1.6875 0 -3.109375 -0.40625q-1.40625 -0.40625 -2.375 -0.890625l0 -2.875l0.140625 0q1.21875 0.90625 2.703125 1.453125q1.5 0.53125 2.859375 0.53125q1.703125 0 2.65625 -0.546875q0.953125 -0.546875 0.953125 -1.71875q0 -0.90625 -0.515625 -1.359375q-0.515625 -0.46875 -2.0 -0.796875q-0.546875 -0.125 -1.4375 -0.28125q-0.875 -0.171875 -1.59375 -0.359375q-2.015625 -0.53125 -2.859375 -1.5625q-0.828125 -1.03125 -0.828125 -2.546875q0 -0.9375 0.390625 -1.765625q0.390625 -0.84375 1.171875 -1.5q0.765625 -0.640625 1.953125 -1.015625q1.1875 -0.375 2.640625 -0.375q1.375 0 2.765625 0.34375q1.40625 0.328125 2.34375 0.796875l0 2.75l-0.140625 0q-0.984375 -0.71875 -2.390625 -1.21875q-1.40625 -0.5 -2.765625 -0.5q-1.40625 0 -2.375 0.546875q-0.96875 0.53125 -0.96875 1.59375q0 0.953125 0.578125 1.421875q0.578125 0.484375 1.859375 0.78125q0.71875 0.171875 1.59375 0.34375q0.890625 0.15625 1.46875 0.296875q1.796875 0.40625 2.765625 1.40625q0.96875 1.0 0.96875 2.671875zm16.697266 -3.21875q0 3.734375 -1.921875 5.890625q-1.90625 2.15625 -5.125 2.15625q-3.234375 0 -5.140625 -2.15625q-1.90625 -2.15625 -1.90625 -5.890625q0 -3.734375 1.90625 -5.90625q1.90625 -2.171875 5.140625 -2.171875q3.21875 0 5.125 2.171875q1.921875 2.171875 1.921875 5.90625zm-2.65625 0q0 -2.96875 -1.171875 -4.40625q-1.15625 -1.453125 -3.21875 -1.453125q-2.09375 0 -3.25 1.453125q-1.140625 1.4375 -1.140625 4.40625q0 2.859375 1.15625 4.34375q1.15625 1.484375 3.234375 1.484375q2.0625 0 3.21875 -1.46875q1.171875 -1.46875 1.171875 -4.359375zm28.916016 7.625l-2.5625 0l0 -8.703125q0 -0.984375 -0.09375 -1.890625q-0.09375 -0.921875 -0.375 -1.46875q-0.3125 -0.578125 -0.90625 -0.875q-0.578125 -0.3125 -1.6875 -0.3125q-1.078125 0 -2.171875 0.546875q-1.078125 0.53125 -2.15625 1.375q0.046875 0.3125 0.0625 0.734375q0.03125 0.40625 0.03125 0.8125l0 9.78125l-2.5625 0l0 -8.703125q0 -1.0 -0.09375 -1.90625q-0.09375 -0.921875 -0.375 -1.46875q-0.3125 -0.578125 -0.90625 -0.875q-0.578125 -0.296875 -1.6875 -0.296875q-1.0625 0 -2.125 0.53125q-1.046875 0.515625 -2.109375 1.3125l0 11.40625l-2.5625 0l0 -15.265625l2.5625 0l0 1.6875q1.203125 -1.0 2.40625 -1.5625q1.203125 -0.5625 2.546875 -0.5625q1.5625 0 2.640625 0.65625q1.09375 0.65625 1.625 1.828125q1.5625 -1.3125 2.84375 -1.890625q1.28125 -0.59375 2.75 -0.59375q2.515625 0 3.703125 1.53125q1.203125 1.53125 1.203125 4.265625l0 9.90625zm17.734375 -7.375l-11.25 0q0 1.40625 0.421875 2.453125q0.421875 1.046875 1.15625 1.71875q0.71875 0.65625 1.6875 0.984375q0.984375 0.328125 2.15625 0.328125q1.5625 0 3.140625 -0.609375q1.578125 -0.625 2.25 -1.234375l0.140625 0l0 2.796875q-1.296875 0.546875 -2.65625 0.921875q-1.359375 0.375 -2.84375 0.375q-3.796875 0 -5.9375 -2.0625q-2.125 -2.0625 -2.125 -5.84375q0 -3.75 2.03125 -5.953125q2.046875 -2.203125 5.390625 -2.203125q3.09375 0 4.765625 1.8125q1.671875 1.796875 1.671875 5.125l0 1.390625zm-2.5 -1.96875q-0.015625 -2.015625 -1.03125 -3.125q-1.0 -1.109375 -3.046875 -1.109375q-2.0625 0 -3.296875 1.21875q-1.21875 1.21875 -1.375 3.015625l8.75 0zm19.414062 1.71875q0 3.734375 -1.921875 5.890625q-1.90625 2.15625 -5.125 2.15625q-3.234375 0 -5.140625 -2.15625q-1.90625 -2.15625 -1.90625 -5.890625q0 -3.734375 1.90625 -5.90625q1.90625 -2.171875 5.140625 -2.171875q3.21875 0 5.125 2.171875q1.921875 2.171875 1.921875 5.90625zm-2.65625 0q0 -2.96875 -1.171875 -4.40625q-1.15625 -1.453125 -3.21875 -1.453125q-2.09375 0 -3.25 1.453125q-1.140625 1.4375 -1.140625 4.40625q0 2.859375 1.15625 4.34375q1.15625 1.484375 3.234375 1.484375q2.0625 0 3.21875 -1.46875q1.171875 -1.46875 1.171875 -4.359375zm19.40039 7.625l-2.5625 0l0 -8.703125q0 -1.046875 -0.125 -1.96875q-0.125 -0.921875 -0.453125 -1.4375q-0.34375 -0.578125 -0.984375 -0.859375q-0.640625 -0.28125 -1.671875 -0.28125q-1.046875 0 -2.203125 0.53125q-1.140625 0.515625 -2.203125 1.3125l0 11.40625l-2.5625 0l0 -15.265625l2.5625 0l0 1.6875q1.203125 -1.0 2.484375 -1.5625q1.296875 -0.5625 2.65625 -0.5625q2.46875 0 3.765625 1.5q1.296875 1.484375 1.296875 4.296875l0 9.90625zm17.734375 -7.375l-11.25 0q0 1.40625 0.421875 2.453125q0.421875 1.046875 1.15625 1.71875q0.71875 0.65625 1.6875 0.984375q0.984375 0.328125 2.15625 0.328125q1.5625 0 3.140625 -0.609375q1.578125 -0.625 2.25 -1.234375l0.140625 0l0 2.796875q-1.296875 0.546875 -2.65625 0.921875q-1.359375 0.375 -2.84375 0.375q-3.796875 0 -5.9375 -2.0625q-2.125 -2.0625 -2.125 -5.84375q0 -3.75 2.03125 -5.953125q2.046875 -2.203125 5.390625 -2.203125q3.09375 0 4.765625 1.8125q1.671875 1.796875 1.671875 5.125l0 1.390625zm-2.5 -1.96875q-0.015625 -2.015625 -1.03125 -3.125q-1.0 -1.109375 -3.046875 -1.109375q-2.0625 0 -3.296875 1.21875q-1.21875 1.21875 -1.375 3.015625l8.75 0zm29.445312 -5.921875l-8.90625 20.90625l-2.75 0l2.84375 -6.375l-6.09375 -14.53125l2.796875 0l4.6875 11.3125l4.734375 -11.3125l2.6875 0zm16.382812 7.640625q0 3.734375 -1.921875 5.890625q-1.90625 2.15625 -5.125 2.15625q-3.234375 0 -5.140625 -2.15625q-1.90625 -2.15625 -1.90625 -5.890625q0 -3.734375 1.90625 -5.90625q1.90625 -2.171875 5.140625 -2.171875q3.21875 0 5.125 2.171875q1.921875 2.171875 1.921875 5.90625zm-2.65625 0q0 -2.96875 -1.171875 -4.40625q-1.15625 -1.453125 -3.21875 -1.453125q-2.09375 0 -3.25 1.453125q-1.140625 1.4375 -1.140625 4.40625q0 2.859375 1.15625 4.34375q1.15625 1.484375 3.234375 1.484375q2.0625 0 3.21875 -1.46875q1.171875 -1.46875 1.171875 -4.359375zm19.291016 7.625l-2.5625 0l0 -1.703125q-1.296875 1.03125 -2.5 1.578125q-1.1875 0.546875 -2.625 0.546875q-2.40625 0 -3.75 -1.46875q-1.328125 -1.46875 -1.328125 -4.3125l0 -9.90625l2.5625 0l0 8.6875q0 1.15625 0.109375 1.984375q0.109375 0.828125 0.46875 1.421875q0.375 0.59375 0.953125 0.875q0.59375 0.265625 1.71875 0.265625q1.0 0 2.171875 -0.515625q1.1875 -0.515625 2.21875 -1.328125l0 -11.390625l2.5625 0l0 15.265625zm28.765625 0l-3.390625 0l-6.125 -6.6875l-1.671875 1.59375l0 5.09375l-2.5625 0l0 -21.28125l2.5625 0l0 13.65625l7.4375 -7.640625l3.234375 0l-7.09375 7.046875l7.609375 8.21875zm15.4765625 0l-2.5625 0l0 -8.703125q0 -1.046875 -0.125 -1.96875q-0.125 -0.921875 -0.453125 -1.4375q-0.34375 -0.578125 -0.984375 -0.859375q-0.640625 -0.28125 -1.671875 -0.28125q-1.046875 0 -2.203125 0.53125q-1.140625 0.515625 -2.203125 1.3125l0 11.40625l-2.5625 0l0 -15.265625l2.5625 0l0 1.6875q1.203125 -1.0 2.484375 -1.5625q1.296875 -0.5625 2.65625 -0.5625q2.46875 0 3.765625 1.5q1.296875 1.484375 1.296875 4.296875l0 9.90625zm17.96875 -7.625q0 3.734375 -1.921875 5.890625q-1.90625 2.15625 -5.125 2.15625q-3.234375 0 -5.140625 -2.15625q-1.90625 -2.15625 -1.90625 -5.890625q0 -3.734375 1.90625 -5.90625q1.90625 -2.171875 5.140625 -2.171875q3.21875 0 5.125 2.171875q1.921875 2.171875 1.921875 5.90625zm-2.65625 0q0 -2.96875 -1.171875 -4.40625q-1.15625 -1.453125 -3.21875 -1.453125q-2.09375 0 -3.25 1.453125q-1.140625 1.4375 -1.140625 4.40625q0 2.859375 1.15625 4.34375q1.15625 1.484375 3.234375 1.484375q2.0625 0 3.21875 -1.46875q1.171875 -1.46875 1.171875 -4.359375zm25.83789 -7.640625l-3.96875 15.265625l-2.390625 0l-3.921875 -11.765625l-3.890625 11.765625l-2.359375 0l-4.03125 -15.265625l2.6875 0l2.796875 11.8125l3.8125 -11.8125l2.125 0l3.90625 11.8125l2.65625 -11.8125l2.578125 0zm14.9140625 -0.3125q0 1.34375 -0.484375 2.390625q-0.46875 1.046875 -1.25 1.859375q-0.765625 0.765625 -1.765625 1.453125q-0.984375 0.6875 -2.109375 1.328125l0 3.078125l-2.453125 0l0 -4.171875q0.890625 -0.5 1.921875 -1.09375q1.03125 -0.609375 1.6875 -1.234375q0.796875 -0.703125 1.234375 -1.453125q0.4375 -0.765625 0.4375 -1.953125q0 -1.53125 -1.046875 -2.296875q-1.046875 -0.765625 -2.703125 -0.765625q-1.46875 0 -2.796875 0.46875q-1.3125 0.46875 -2.078125 0.953125l-0.140625 0l0 -2.796875q0.953125 -0.375 2.421875 -0.65625q1.46875 -0.296875 2.78125 -0.296875q2.953125 0 4.640625 1.4375q1.703125 1.421875 1.703125 3.75zm-5.390625 15.578125l-2.796875 0l0 -2.890625l2.796875 0l0 2.890625z" fill-rule="nonzero"/></g></svg>