<svg version="1.1" viewBox="0.0 0.0 960.0 720.0" fill="none" stroke="none" stroke-linecap="square" stroke-miterlimit="10" xmlns:xlink="http://www.w3.org/1999/xlink" xmlns="http://www.w3.org/2000/svg"><clipPath id="p.0"><path d="m0 0l960.0 0l0 720.0l-960.0 0l0 -720.0z" clip-rule="nonzero"/></clipPath><g clip-path="url(#p.0)"><path fill="#000000" fill-opacity="0.0" d="m0 0l960.0 0l0 720.0l-960.0 0z" fill-rule="evenodd"/><path fill="#efefef" d="m60.188976 93.49606l839.6221 0l0 533.00793l-839.6221 0z" fill-rule="evenodd"/><path stroke="#000000" stroke-width="2.0" stroke-linejoin="round" stroke-linecap="butt" d="m60.188976 93.49606l839.6221 0l0 533.00793l-839.6221 0z" fill-rule="evenodd"/><path fill="#ffffff" d="m65.55905 115.09449l828.88184 0l0 53.322838l-828.88184 0z" fill-rule="evenodd"/><path fill="#000000" d="m411.92188 130.61511l-5.28125 20.359375l-3.046875 0l-4.28125 -16.90625l-4.1875 16.90625l-2.984375 0l-5.375 -20.359375l2.765625 0l4.28125 16.921875l4.21875 -16.921875l2.734375 0l4.265625 17.09375l4.25 -17.09375l2.640625 0zm16.560547 20.359375l-2.5625 0l0 -8.703125q0 -1.046875 -0.125 -1.96875q-0.125 -0.921875 -0.453125 -1.4375q-0.34375 -0.578125 -0.984375 -0.859375q-0.640625 -0.28125 -1.671875 -0.28125q-1.046875 0 -2.203125 0.53125q-1.140625 0.515625 -2.203125 1.3125l0 11.40625l-2.5625 0l0 -21.28125l2.5625 0l0 7.703125q1.203125 -1.0 2.484375 -1.5625q1.296875 -0.5625 2.65625 -0.5625q2.46875 0 3.765625 1.5q1.296875 1.484375 1.296875 4.296875l0 9.90625zm16.8125 0l-2.546875 0l0 -1.625q-0.34375 0.234375 -0.921875 0.65625q-0.578125 0.40625 -1.125 0.65625q-0.65625 0.3125 -1.484375 0.515625q-0.828125 0.21875 -1.953125 0.21875q-2.0625 0 -3.5 -1.359375q-1.4375 -1.375 -1.4375 -3.5q0 -1.734375 0.734375 -2.796875q0.75 -1.078125 2.140625 -1.6875q1.390625 -0.625 3.34375 -0.84375q1.953125 -0.21875 4.203125 -0.328125l0 -0.390625q0 -0.875 -0.3125 -1.453125q-0.3125 -0.578125 -0.875 -0.90625q-0.546875 -0.3125 -1.3125 -0.421875q-0.765625 -0.109375 -1.609375 -0.109375q-1.0 0 -2.25 0.265625q-1.25 0.265625 -2.578125 0.78125l-0.125 0l0 -2.609375q0.75 -0.21875 2.171875 -0.453125q1.421875 -0.25 2.796875 -0.25q1.609375 0 2.8125 0.265625q1.203125 0.265625 2.078125 0.90625q0.859375 0.625 1.296875 1.625q0.453125 1.0 0.453125 2.484375l0 10.359375zm-2.546875 -3.765625l0 -4.25q-1.171875 0.078125 -2.765625 0.21875q-1.59375 0.125 -2.53125 0.390625q-1.109375 0.3125 -1.796875 0.984375q-0.671875 0.65625 -0.671875 1.8125q0 1.3125 0.78125 1.984375q0.796875 0.65625 2.421875 0.65625q1.359375 0 2.484375 -0.515625q1.125 -0.53125 2.078125 -1.28125zm15.425781 3.625q-0.71875 0.203125 -1.578125 0.3125q-0.84375 0.125 -1.515625 0.125q-2.34375 0 -3.5625 -1.25q-1.21875 -1.265625 -1.21875 -4.03125l0 -8.125l-1.734375 0l0 -2.15625l1.734375 0l0 -4.390625l2.578125 0l0 4.390625l5.296875 0l0 2.15625l-5.296875 0l0 6.953125q0 1.203125 0.046875 1.890625q0.0625 0.671875 0.390625 1.25q0.296875 0.546875 0.828125 0.8125q0.53125 0.25 1.609375 0.25q0.625 0 1.296875 -0.1875q0.6875 -0.1875 1.0 -0.3125l0.125 0l0 2.3125zm15.720703 -17.6875l-2.90625 0l0 -2.671875l2.90625 0l0 2.671875zm-0.171875 17.828125l-2.5625 0l0 -15.265625l2.5625 0l0 15.265625zm15.996094 -4.40625q0 2.09375 -1.734375 3.4375q-1.71875 1.34375 -4.71875 1.34375q-1.6875 0 -3.109375 -0.40625q-1.40625 -0.40625 -2.375 -0.890625l0 -2.875l0.140625 0q1.21875 0.90625 2.703125 1.453125q1.5 0.53125 2.859375 0.53125q1.703125 0 2.65625 -0.546875q0.953125 -0.546875 0.953125 -1.71875q0 -0.90625 -0.515625 -1.359375q-0.515625 -0.46875 -2.0 -0.796875q-0.546875 -0.125 -1.4375 -0.28125q-0.875 -0.171875 -1.59375 -0.359375q-2.015625 -0.53125 -2.859375 -1.5625q-0.828125 -1.03125 -0.828125 -2.546875q0 -0.9375 0.390625 -1.765625q0.390625 -0.84375 1.171875 -1.5q0.765625 -0.640625 1.953125 -1.015625q1.1875 -0.375 2.640625 -0.375q1.375 0 2.765625 0.34375q1.40625 0.328125 2.34375 0.796875l0 2.75l-0.140625 0q-0.984375 -0.71875 -2.390625 -1.21875q-1.40625 -0.5 -2.765625 -0.5q-1.40625 0 -2.375 0.546875q-0.96875 0.53125 -0.96875 1.59375q0 0.953125 0.578125 1.421875q0.578125 0.484375 1.859375 0.78125q0.71875 0.171875 1.59375 0.34375q0.890625 0.15625 1.46875 0.296875q1.796875 0.40625 2.765625 1.40625q0.96875 1.0 0.96875 2.671875zm26.978516 4.40625l-13.78125 0l0 -2.859375q1.4375 -1.234375 2.875 -2.453125q1.4375 -1.234375 2.6875 -2.453125q2.625 -2.546875 3.59375 -4.03125q0.96875 -1.5 0.96875 -3.25q0 -1.578125 -1.046875 -2.46875q-1.046875 -0.90625 -2.90625 -0.90625q-1.25 0 -2.703125 0.4375q-1.453125 0.4375 -2.828125 1.34375l-0.140625 0l0 -2.875q0.96875 -0.46875 2.59375 -0.859375q1.625 -0.40625 3.140625 -0.40625q3.125 0 4.90625 1.515625q1.78125 1.5 1.78125 4.09375q0 1.15625 -0.296875 2.171875q-0.296875 1.0 -0.875 1.890625q-0.53125 0.859375 -1.25 1.6875q-0.71875 0.8125 -1.734375 1.8125q-1.46875 1.421875 -3.03125 2.78125q-1.546875 1.34375 -2.90625 2.484375l10.953125 0l0 2.34375zm21.863281 -7.828125l-7.453125 0l0 7.453125l-2.265625 0l0 -7.453125l-7.453125 0l0 -2.1875l7.453125 0l0 -7.4375l2.265625 0l0 7.4375l7.453125 0l0 2.1875zm18.851562 7.828125l-13.78125 0l0 -2.859375q1.4375 -1.234375 2.875 -2.453125q1.4375 -1.234375 2.6875 -2.453125q2.625 -2.546875 3.59375 -4.03125q0.96875 -1.5 0.96875 -3.25q0 -1.578125 -1.046875 -2.46875q-1.046875 -0.90625 -2.90625 -0.90625q-1.25 0 -2.703125 0.4375q-1.453125 0.4375 -2.828125 1.34375l-0.140625 0l0 -2.875q0.96875 -0.46875 2.59375 -0.859375q1.625 -0.40625 3.140625 -0.40625q3.125 0 4.90625 1.515625q1.78125 1.5 1.78125 4.09375q0 1.15625 -0.296875 2.171875q-0.296875 1.0 -0.875 1.890625q-0.53125 0.859375 -1.25 1.6875q-0.71875 0.8125 -1.734375 1.8125q-1.46875 1.421875 -3.03125 2.78125q-1.546875 1.34375 -2.90625 2.484375l10.953125 0l0 2.34375zm15.550781 -15.578125q0 1.34375 -0.484375 2.390625q-0.46875 1.046875 -1.25 1.859375q-0.765625 0.765625 -1.765625 1.453125q-0.984375 0.6875 -2.109375 1.328125l0 3.078125l-2.453125 0l0 -4.171875q0.890625 -0.5 1.921875 -1.09375q1.03125 -0.609375 1.6875 -1.234375q0.796875 -0.703125 1.234375 -1.453125q0.4375 -0.765625 0.4375 -1.953125q0 -1.53125 -1.046875 -2.296875q-1.046875 -0.765625 -2.703125 -0.765625q-1.46875 0 -2.796875 0.46875q-1.3125 0.46875 -2.078125 0.953125l-0.140625 0l0 -2.796875q0.953125 -0.375 2.421875 -0.65625q1.46875 -0.296875 2.78125 -0.296875q2.953125 0 4.640625 1.4375q1.703125 1.421875 1.703125 3.75zm-5.390625 15.578125l-2.796875 0l0 -2.890625l2.796875 0l0 2.890625z" fill-rule="nonzero"/></g></svg>