<svg version="1.1" viewBox="0.0 0.0 960.0 720.0" fill="none" stroke="none" stroke-linecap="square" stroke-miterlimit="10" xmlns:xlink="http://www.w3.org/1999/xlink" xmlns="http://www.w3.org/2000/svg"><clipPath id="p.0"><path d="m0 0l960.0 0l0 720.0l-960.0 0l0 -720.0z" clip-rule="nonzero"/></clipPath><g clip-path="url(#p.0)"><path fill="#000000" fill-opacity="0.0" d="m0 0l960.0 0l0 720.0l-960.0 0z" fill-rule="evenodd"/><path fill="#efefef" d="m60.188976 93.49606l839.6221 0l0 533.00793l-839.6221 0z" fill-rule="evenodd"/><path stroke="#000000" stroke-width="2.0" stroke-linejoin="round" stroke-linecap="butt" d="m60.188976 93.49606l839.6221 0l0 533.00793l-839.6221 0z" fill-rule="evenodd"/><path fill="#ffffff" d="m65.55905 115.09449l828.88184 0l0 53.322838l-828.88184 0z" fill-rule="evenodd"/><path fill="#000000" d="m301.76367 145.16199q0 1.1875 -0.5625 2.359375q-0.546875 1.15625 -1.546875 1.96875q-1.09375 0.875 -2.546875 1.375q-1.453125 0.484375 -3.515625 0.484375q-2.1875 0 -3.953125 -0.40625q-1.75 -0.421875 -3.578125 -1.234375l0 -3.390625l0.203125 0q1.53125 1.296875 3.546875 2.0q2.03125 0.6875 3.8125 0.6875q2.515625 0 3.921875 -0.9375q1.40625 -0.953125 1.40625 -2.515625q0 -1.359375 -0.671875 -2.0q-0.65625 -0.640625 -2.015625 -1.0q-1.03125 -0.28125 -2.234375 -0.453125q-1.1875 -0.171875 -2.515625 -0.453125q-2.71875 -0.578125 -4.03125 -1.953125q-1.296875 -1.390625 -1.296875 -3.625q0 -2.546875 2.15625 -4.1875q2.171875 -1.640625 5.484375 -1.640625q2.15625 0 3.9375 0.421875q1.796875 0.40625 3.171875 1.0l0 3.203125l-0.1875 0q-1.15625 -0.984375 -3.0625 -1.625q-1.890625 -0.65625 -3.875 -0.65625q-2.171875 0 -3.5 0.90625q-1.3125 0.90625 -1.3125 2.328125q0 1.265625 0.65625 2.0q0.65625 0.71875 2.3125 1.09375q0.875 0.1875 2.484375 0.46875q1.625 0.265625 2.75 0.5625q2.265625 0.59375 3.40625 1.8125q1.15625 1.21875 1.15625 3.40625zm17.15625 -1.8125q0 3.734375 -1.921875 5.890625q-1.90625 2.15625 -5.125 2.15625q-3.234375 0 -5.140625 -2.15625q-1.90625 -2.15625 -1.90625 -5.890625q0 -3.734375 1.90625 -5.90625q1.90625 -2.171875 5.140625 -2.171875q3.21875 0 5.125 2.171875q1.921875 2.171875 1.921875 5.90625zm-2.65625 0q0 -2.96875 -1.171875 -4.40625q-1.15625 -1.453125 -3.21875 -1.453125q-2.09375 0 -3.25 1.453125q-1.140625 1.4375 -1.140625 4.40625q0 2.859375 1.15625 4.34375q1.15625 1.484375 3.234375 1.484375q2.0625 0 3.21875 -1.46875q1.171875 -1.46875 1.171875 -4.359375zm28.916016 7.625l-2.5625 0l0 -8.703125q0 -0.984375 -0.09375 -1.890625q-0.09375 -0.921875 -0.375 -1.46875q-0.3125 -0.578125 -0.90625 -0.875q-0.578125 -0.3125 -1.6875 -0.3125q-1.078125 0 -2.171875 0.546875q-1.078125 0.53125 -2.15625 1.375q0.046875 0.3125 0.0625 0.734375q0.03125 0.40625 0.03125 0.8125l0 9.78125l-2.5625 0l0 -8.703125q0 -1.0 -0.09375 -1.90625q-0.09375 -0.921875 -0.375 -1.46875q-0.3125 -0.578125 -0.90625 -0.875q-0.578125 -0.296875 -1.6875 -0.296875q-1.0625 0 -2.125 0.53125q-1.046875 0.515625 -2.109375 1.3125l0 11.40625l-2.5625 0l0 -15.265625l2.5625 0l0 1.6875q1.203125 -1.0 2.40625 -1.5625q1.203125 -0.5625 2.546875 -0.5625q1.5625 0 2.640625 0.65625q1.09375 0.65625 1.625 1.828125q1.5625 -1.3125 2.84375 -1.890625q1.28125 -0.59375 2.75 -0.59375q2.515625 0 3.703125 1.53125q1.203125 1.53125 1.203125 4.265625l0 9.90625zm17.734375 -7.375l-11.25 0q0 1.40625 0.421875 2.453125q0.421875 1.046875 1.15625 1.71875q0.71875 0.65625 1.6875 0.984375q0.984375 0.328125 2.15625 0.328125q1.5625 0 3.140625 -0.609375q1.578125 -0.625 2.25 -1.234375l0.140625 0l0 2.796875q-1.296875 0.546875 -2.65625 0.921875q-1.359375 0.375 -2.84375 0.375q-3.796875 0 -5.9375 -2.0625q-2.125 -2.0625 -2.125 -5.84375q0 -3.75 2.03125 -5.953125q2.046875 -2.203125 5.390625 -2.203125q3.09375 0 4.765625 1.8125q1.671875 1.796875 1.671875 5.125l0 1.390625zm-2.5 -1.96875q-0.015625 -2.015625 -1.03125 -3.125q-1.0 -1.109375 -3.046875 -1.109375q-2.0625 0 -3.296875 1.21875q-1.21875 1.21875 -1.375 3.015625l8.75 0zm24.460938 -9.4375l-0.140625 0q-0.421875 -0.125 -1.109375 -0.25q-0.6875 -0.140625 -1.203125 -0.140625q-1.65625 0 -2.40625 0.734375q-0.734375 0.734375 -0.734375 2.640625l0 0.53125l4.640625 0l0 2.15625l-4.5625 0l0 13.109375l-2.5625 0l0 -13.109375l-1.734375 0l0 -2.15625l1.734375 0l0 -0.515625q0 -2.71875 1.34375 -4.171875q1.359375 -1.453125 3.921875 -1.453125q0.859375 0 1.546875 0.078125q0.6875 0.078125 1.265625 0.1875l0 2.359375zm4.390625 0.953125l-2.90625 0l0 -2.671875l2.90625 0l0 2.671875zm-0.171875 17.828125l-2.5625 0l0 -15.265625l2.5625 0l0 15.265625zm15.996094 -4.40625q0 2.09375 -1.734375 3.4375q-1.71875 1.34375 -4.71875 1.34375q-1.6875 0 -3.109375 -0.40625q-1.40625 -0.40625 -2.375 -0.890625l0 -2.875l0.140625 0q1.21875 0.90625 2.703125 1.453125q1.5 0.53125 2.859375 0.53125q1.703125 0 2.65625 -0.546875q0.953125 -0.546875 0.953125 -1.71875q0 -0.90625 -0.515625 -1.359375q-0.515625 -0.46875 -2.0 -0.796875q-0.546875 -0.125 -1.4375 -0.28125q-0.875 -0.171875 -1.59375 -0.359375q-2.015625 -0.53125 -2.859375 -1.5625q-0.828125 -1.03125 -0.828125 -2.546875q0 -0.9375 0.390625 -1.765625q0.390625 -0.84375 1.171875 -1.5q0.765625 -0.640625 1.953125 -1.015625q1.1875 -0.375 2.640625 -0.375q1.375 0 2.765625 0.34375q1.40625 0.328125 2.34375 0.796875l0 2.75l-0.140625 0q-0.984375 -0.71875 -2.390625 -1.21875q-1.40625 -0.5 -2.765625 -0.5q-1.40625 0 -2.375 0.546875q-0.96875 0.53125 -0.96875 1.59375q0 0.953125 0.578125 1.421875q0.578125 0.484375 1.859375 0.78125q0.71875 0.171875 1.59375 0.34375q0.890625 0.15625 1.46875 0.296875q1.796875 0.40625 2.765625 1.40625q0.96875 1.0 0.96875 2.671875zm16.447266 4.40625l-2.5625 0l0 -8.703125q0 -1.046875 -0.125 -1.96875q-0.125 -0.921875 -0.453125 -1.4375q-0.34375 -0.578125 -0.984375 -0.859375q-0.640625 -0.28125 -1.671875 -0.28125q-1.046875 0 -2.203125 0.53125q-1.140625 0.515625 -2.203125 1.3125l0 11.40625l-2.5625 0l0 -21.28125l2.5625 0l0 7.703125q1.203125 -1.0 2.484375 -1.5625q1.296875 -0.5625 2.65625 -0.5625q2.46875 0 3.765625 1.5q1.296875 1.484375 1.296875 4.296875l0 9.90625zm17.390625 0l-2.5625 0l0 -21.28125l2.5625 0l0 21.28125zm7.8554688 -17.828125l-2.90625 0l0 -2.671875l2.90625 0l0 2.671875zm-0.171875 17.828125l-2.5625 0l0 -15.265625l2.5625 0l0 15.265625zm18.292969 -15.265625l-6.171875 15.265625l-2.59375 0l-6.140625 -15.265625l2.796875 0l4.734375 12.140625l4.6875 -12.140625l2.6875 0zm16.148438 7.890625l-11.25 0q0 1.40625 0.421875 2.453125q0.421875 1.046875 1.15625 1.71875q0.71875 0.65625 1.6875 0.984375q0.984375 0.328125 2.15625 0.328125q1.5625 0 3.140625 -0.609375q1.578125 -0.625 2.25 -1.234375l0.140625 0l0 2.796875q-1.296875 0.546875 -2.65625 0.921875q-1.359375 0.375 -2.84375 0.375q-3.796875 0 -5.9375 -2.0625q-2.125 -2.0625 -2.125 -5.84375q0 -3.75 2.03125 -5.953125q2.046875 -2.203125 5.390625 -2.203125q3.09375 0 4.765625 1.8125q1.671875 1.796875 1.671875 5.125l0 1.390625zm-2.5 -1.96875q-0.015625 -2.015625 -1.03125 -3.125q-1.0 -1.109375 -3.046875 -1.109375q-2.0625 0 -3.296875 1.21875q-1.21875 1.21875 -1.375 3.015625l8.75 0zm19.007812 -8.484375l-2.90625 0l0 -2.671875l2.90625 0l0 2.671875zm-0.171875 17.828125l-2.5625 0l0 -15.265625l2.5625 0l0 15.265625zm17.855469 0l-2.5625 0l0 -8.703125q0 -1.046875 -0.125 -1.96875q-0.125 -0.921875 -0.453125 -1.4375q-0.34375 -0.578125 -0.984375 -0.859375q-0.640625 -0.28125 -1.671875 -0.28125q-1.046875 0 -2.203125 0.53125q-1.140625 0.515625 -2.203125 1.3125l0 11.40625l-2.5625 0l0 -15.265625l2.5625 0l0 1.6875q1.203125 -1.0 2.484375 -1.5625q1.296875 -0.5625 2.65625 -0.5625q2.46875 0 3.765625 1.5q1.296875 1.484375 1.296875 4.296875l0 9.90625zm22.71875 -0.140625q-0.71875 0.203125 -1.578125 0.3125q-0.84375 0.125 -1.515625 0.125q-2.34375 0 -3.5625 -1.25q-1.21875 -1.265625 -1.21875 -4.03125l0 -8.125l-1.734375 0l0 -2.15625l1.734375 0l0 -4.390625l2.578125 0l0 4.390625l5.296875 0l0 2.15625l-5.296875 0l0 6.953125q0 1.203125 0.046875 1.890625q0.0625 0.671875 0.390625 1.25q0.296875 0.546875 0.828125 0.8125q0.53125 0.25 1.609375 0.25q0.625 0 1.296875 -0.1875q0.6875 -0.1875 1.0 -0.3125l0.125 0l0 2.3125zm15.876953 0.140625l-2.5625 0l0 -8.703125q0 -1.046875 -0.125 -1.96875q-0.125 -0.921875 -0.453125 -1.4375q-0.34375 -0.578125 -0.984375 -0.859375q-0.640625 -0.28125 -1.671875 -0.28125q-1.046875 0 -2.203125 0.53125q-1.140625 0.515625 -2.203125 1.3125l0 11.40625l-2.5625 0l0 -21.28125l2.5625 0l0 7.703125q1.203125 -1.0 2.484375 -1.5625q1.296875 -0.5625 2.65625 -0.5625q2.46875 0 3.765625 1.5q1.296875 1.484375 1.296875 4.296875l0 9.90625zm17.734375 -7.375l-11.25 0q0 1.40625 0.421875 2.453125q0.421875 1.046875 1.15625 1.71875q0.71875 0.65625 1.6875 0.984375q0.984375 0.328125 2.15625 0.328125q1.5625 0 3.140625 -0.609375q1.578125 -0.625 2.25 -1.234375l0.140625 0l0 2.796875q-1.296875 0.546875 -2.65625 0.921875q-1.359375 0.375 -2.84375 0.375q-3.796875 0 -5.9375 -2.0625q-2.125 -2.0625 -2.125 -5.84375q0 -3.75 2.03125 -5.953125q2.046875 -2.203125 5.390625 -2.203125q3.09375 0 4.765625 1.8125q1.671875 1.796875 1.671875 5.125l0 1.390625zm-2.5 -1.96875q-0.015625 -2.015625 -1.03125 -3.125q-1.0 -1.109375 -3.046875 -1.109375q-2.0625 0 -3.296875 1.21875q-1.21875 1.21875 -1.375 3.015625l8.75 0zm29.257812 1.71875q0 3.734375 -1.921875 5.890625q-1.90625 2.15625 -5.125 2.15625q-3.234375 0 -5.140625 -2.15625q-1.90625 -2.15625 -1.90625 -5.890625q0 -3.734375 1.90625 -5.90625q1.90625 -2.171875 5.140625 -2.171875q3.21875 0 5.125 2.171875q1.921875 2.171875 1.921875 5.90625zm-2.65625 0q0 -2.96875 -1.171875 -4.40625q-1.15625 -1.453125 -3.21875 -1.453125q-2.09375 0 -3.25 1.453125q-1.140625 1.4375 -1.140625 4.40625q0 2.859375 1.15625 4.34375q1.15625 1.484375 3.234375 1.484375q2.0625 0 3.21875 -1.46875q1.171875 -1.46875 1.171875 -4.359375zm17.93164 6.671875q-1.296875 0.609375 -2.453125 0.953125q-1.140625 0.34375 -2.453125 0.34375q-1.640625 0 -3.03125 -0.484375q-1.375 -0.484375 -2.359375 -1.46875q-1.0 -0.984375 -1.546875 -2.484375q-0.546875 -1.515625 -0.546875 -3.515625q0 -3.75 2.046875 -5.875q2.0625 -2.140625 5.4375 -2.140625q1.3125 0 2.578125 0.375q1.265625 0.359375 2.328125 0.890625l0 2.859375l-0.140625 0q-1.171875 -0.921875 -2.421875 -1.40625q-1.25 -0.5 -2.453125 -0.5q-2.1875 0 -3.453125 1.484375q-1.25 1.46875 -1.25 4.3125q0 2.75 1.234375 4.234375q1.234375 1.484375 3.46875 1.484375q0.78125 0 1.59375 -0.203125q0.8125 -0.203125 1.453125 -0.53125q0.5625 -0.28125 1.046875 -0.609375q0.5 -0.328125 0.78125 -0.546875l0.140625 0l0 2.828125zm16.072266 -6.421875l-11.25 0q0 1.40625 0.421875 2.453125q0.421875 1.046875 1.15625 1.71875q0.71875 0.65625 1.6875 0.984375q0.984375 0.328125 2.15625 0.328125q1.5625 0 3.140625 -0.609375q1.578125 -0.625 2.25 -1.234375l0.140625 0l0 2.796875q-1.296875 0.546875 -2.65625 0.921875q-1.359375 0.375 -2.84375 0.375q-3.796875 0 -5.9375 -2.0625q-2.125 -2.0625 -2.125 -5.84375q0 -3.75 2.03125 -5.953125q2.046875 -2.203125 5.390625 -2.203125q3.09375 0 4.765625 1.8125q1.671875 1.796875 1.671875 5.125l0 1.390625zm-2.5 -1.96875q-0.015625 -2.015625 -1.03125 -3.125q-1.0 -1.109375 -3.046875 -1.109375q-2.0625 0 -3.296875 1.21875q-1.21875 1.21875 -1.375 3.015625l8.75 0zm18.257812 9.34375l-2.546875 0l0 -1.625q-0.34375 0.234375 -0.921875 0.65625q-0.578125 0.40625 -1.125 0.65625q-0.65625 0.3125 -1.484375 0.515625q-0.828125 0.21875 -1.953125 0.21875q-2.0625 0 -3.5 -1.359375q-1.4375 -1.375 -1.4375 -3.5q0 -1.734375 0.734375 -2.796875q0.75 -1.078125 2.140625 -1.6875q1.390625 -0.625 3.34375 -0.84375q1.953125 -0.21875 4.203125 -0.328125l0 -0.390625q0 -0.875 -0.3125 -1.453125q-0.3125 -0.578125 -0.875 -0.90625q-0.546875 -0.3125 -1.3125 -0.421875q-0.765625 -0.109375 -1.609375 -0.109375q-1.0 0 -2.25 0.265625q-1.25 0.265625 -2.578125 0.78125l-0.125 0l0 -2.609375q0.75 -0.21875 2.171875 -0.453125q1.421875 -0.25 2.796875 -0.25q1.609375 0 2.8125 0.265625q1.203125 0.265625 2.078125 0.90625q0.859375 0.625 1.296875 1.625q0.453125 1.0 0.453125 2.484375l0 10.359375zm-2.546875 -3.765625l0 -4.25q-1.171875 0.078125 -2.765625 0.21875q-1.59375 0.125 -2.53125 0.390625q-1.109375 0.3125 -1.796875 0.984375q-0.671875 0.65625 -0.671875 1.8125q0 1.3125 0.78125 1.984375q0.796875 0.65625 2.421875 0.65625q1.359375 0 2.484375 -0.515625q1.125 -0.53125 2.078125 -1.28125zm20.269531 3.765625l-2.5625 0l0 -8.703125q0 -1.046875 -0.125 -1.96875q-0.125 -0.921875 -0.453125 -1.4375q-0.34375 -0.578125 -0.984375 -0.859375q-0.640625 -0.28125 -1.671875 -0.28125q-1.046875 0 -2.203125 0.53125q-1.140625 0.515625 -2.203125 1.3125l0 11.40625l-2.5625 0l0 -15.265625l2.5625 0l0 1.6875q1.203125 -1.0 2.484375 -1.5625q1.296875 -0.5625 2.65625 -0.5625q2.46875 0 3.765625 1.5q1.296875 1.484375 1.296875 4.296875l0 9.90625zm9.15625 0l-3.28125 0l0 -3.890625l3.28125 0l0 3.890625z" fill-rule="nonzero"/></g></svg>